<?xml version="1.0" encoding="utf-8" standalone="no"?>
<!DOCTYPE svg PUBLIC "-//W3C//DTD SVG 1.1//EN"
  "http://www.w3.org/Graphics/SVG/1.1/DTD/svg11.dtd">
<svg xmlns:xlink="http://www.w3.org/1999/xlink" width="712.77pt" height="714.06431pt" viewBox="0 0 712.77 714.06431" xmlns="http://www.w3.org/2000/svg" version="1.1">
 <metadata>
  <rdf:RDF xmlns:dc="http://purl.org/dc/elements/1.1/" xmlns:cc="http://creativecommons.org/ns#" xmlns:rdf="http://www.w3.org/1999/02/22-rdf-syntax-ns#">
   <cc:Work>
    <dc:type rdf:resource="http://purl.org/dc/dcmitype/StillImage"/>
    <dc:date>2024-07-06T19:01:44.581081</dc:date>
    <dc:format>image/svg+xml</dc:format>
    <dc:creator>
     <cc:Agent>
      <dc:title>Matplotlib v3.9.0, https://matplotlib.org/</dc:title>
     </cc:Agent>
    </dc:creator>
   </cc:Work>
  </rdf:RDF>
 </metadata>
 <defs>
  <style type="text/css">*{stroke-linejoin: round; stroke-linecap: butt}</style>
 </defs>
 <g id="figure_1">
  <g id="patch_1">
   <path d="M 0 714.06431 
L 712.77 714.06431 
L 712.77 0 
L 0 0 
z
" style="fill: #ffffff"/>
  </g>
  <g id="axes_1">
   <g id="patch_2">
    <path d="M 75.28 667.65 
L 705.57 667.65 
L 705.57 38.17 
L 75.28 38.17 
z
" style="fill: #ffffff"/>
   </g>
   <g id="PolyCollection_1">
    <defs>
     <path id="mbcf5fda4cf" d="M 103.929545 -111.532931 
L 103.929545 -24.708103 
L 676.920455 -24.708103 
L 676.920455 -111.532931 
L 676.920455 -111.532931 
L 103.929545 -111.532931 
z
" style="stroke: #d3d3d3; stroke-opacity: 0.2"/>
    </defs>
    <g clip-path="url(#p86b261b904)">
     <use xlink:href="#mbcf5fda4cf" x="0" y="714.06431" style="fill: #d3d3d3; fill-opacity: 0.2; stroke: #d3d3d3; stroke-opacity: 0.2"/>
    </g>
   </g>
   <g id="matplotlib.axis_1">
    <g id="xtick_1">
     <g id="line2d_1">
      <defs>
       <path id="m58af9b72ee" d="M 0 0 
L 0 3.5 
" style="stroke: #000000; stroke-width: 0.8"/>
      </defs>
      <g>
       <use xlink:href="#m58af9b72ee" x="333.125909" y="667.65" style="stroke: #000000; stroke-width: 0.8"/>
      </g>
     </g>
     <g id="text_1">
      <!-- 2,000 -->
      <g transform="translate(287.320909 698.965) scale(0.32 -0.32)">
       <defs>
        <path id="DejaVuSans-32" d="M 1228 531 
L 3431 531 
L 3431 0 
L 469 0 
L 469 531 
Q 828 903 1448 1529 
Q 2069 2156 2228 2338 
Q 2531 2678 2651 2914 
Q 2772 3150 2772 3378 
Q 2772 3750 2511 3984 
Q 2250 4219 1831 4219 
Q 1534 4219 1204 4116 
Q 875 4013 500 3803 
L 500 4441 
Q 881 4594 1212 4672 
Q 1544 4750 1819 4750 
Q 2544 4750 2975 4387 
Q 3406 4025 3406 3419 
Q 3406 3131 3298 2873 
Q 3191 2616 2906 2266 
Q 2828 2175 2409 1742 
Q 1991 1309 1228 531 
z
" transform="scale(0.015625)"/>
        <path id="DejaVuSans-2c" d="M 750 794 
L 1409 794 
L 1409 256 
L 897 -744 
L 494 -744 
L 750 256 
L 750 794 
z
" transform="scale(0.015625)"/>
        <path id="DejaVuSans-30" d="M 2034 4250 
Q 1547 4250 1301 3770 
Q 1056 3291 1056 2328 
Q 1056 1369 1301 889 
Q 1547 409 2034 409 
Q 2525 409 2770 889 
Q 3016 1369 3016 2328 
Q 3016 3291 2770 3770 
Q 2525 4250 2034 4250 
z
M 2034 4750 
Q 2819 4750 3233 4129 
Q 3647 3509 3647 2328 
Q 3647 1150 3233 529 
Q 2819 -91 2034 -91 
Q 1250 -91 836 529 
Q 422 1150 422 2328 
Q 422 3509 836 4129 
Q 1250 4750 2034 4750 
z
" transform="scale(0.015625)"/>
       </defs>
       <use xlink:href="#DejaVuSans-32"/>
       <use xlink:href="#DejaVuSans-2c" x="63.623047"/>
       <use xlink:href="#DejaVuSans-30" x="95.410156"/>
       <use xlink:href="#DejaVuSans-30" x="159.033203"/>
       <use xlink:href="#DejaVuSans-30" x="222.65625"/>
      </g>
     </g>
    </g>
    <g id="xtick_2">
     <g id="line2d_2">
      <g>
       <use xlink:href="#m58af9b72ee" x="562.322273" y="667.65" style="stroke: #000000; stroke-width: 0.8"/>
      </g>
     </g>
     <g id="text_2">
      <!-- 4,000 -->
      <g transform="translate(516.517273 698.965) scale(0.32 -0.32)">
       <defs>
        <path id="DejaVuSans-34" d="M 2419 4116 
L 825 1625 
L 2419 1625 
L 2419 4116 
z
M 2253 4666 
L 3047 4666 
L 3047 1625 
L 3713 1625 
L 3713 1100 
L 3047 1100 
L 3047 0 
L 2419 0 
L 2419 1100 
L 313 1100 
L 313 1709 
L 2253 4666 
z
" transform="scale(0.015625)"/>
       </defs>
       <use xlink:href="#DejaVuSans-34"/>
       <use xlink:href="#DejaVuSans-2c" x="63.623047"/>
       <use xlink:href="#DejaVuSans-30" x="95.410156"/>
       <use xlink:href="#DejaVuSans-30" x="159.033203"/>
       <use xlink:href="#DejaVuSans-30" x="222.65625"/>
      </g>
     </g>
    </g>
   </g>
   <g id="matplotlib.axis_2">
    <g id="ytick_1">
     <g id="line2d_3">
      <defs>
       <path id="mb0fea9bc2b" d="M 0 0 
L -3.5 0 
" style="stroke: #000000; stroke-width: 0.8"/>
      </defs>
      <g>
       <use xlink:href="#mb0fea9bc2b" x="75.28" y="515.706552" style="stroke: #000000; stroke-width: 0.8"/>
      </g>
     </g>
     <g id="text_3">
      <!-- 135 -->
      <g transform="translate(7.2 527.864052) scale(0.32 -0.32)">
       <defs>
        <path id="DejaVuSans-31" d="M 794 531 
L 1825 531 
L 1825 4091 
L 703 3866 
L 703 4441 
L 1819 4666 
L 2450 4666 
L 2450 531 
L 3481 531 
L 3481 0 
L 794 0 
L 794 531 
z
" transform="scale(0.015625)"/>
        <path id="DejaVuSans-33" d="M 2597 2516 
Q 3050 2419 3304 2112 
Q 3559 1806 3559 1356 
Q 3559 666 3084 287 
Q 2609 -91 1734 -91 
Q 1441 -91 1130 -33 
Q 819 25 488 141 
L 488 750 
Q 750 597 1062 519 
Q 1375 441 1716 441 
Q 2309 441 2620 675 
Q 2931 909 2931 1356 
Q 2931 1769 2642 2001 
Q 2353 2234 1838 2234 
L 1294 2234 
L 1294 2753 
L 1863 2753 
Q 2328 2753 2575 2939 
Q 2822 3125 2822 3475 
Q 2822 3834 2567 4026 
Q 2313 4219 1838 4219 
Q 1578 4219 1281 4162 
Q 984 4106 628 3988 
L 628 4550 
Q 988 4650 1302 4700 
Q 1616 4750 1894 4750 
Q 2613 4750 3031 4423 
Q 3450 4097 3450 3541 
Q 3450 3153 3228 2886 
Q 3006 2619 2597 2516 
z
" transform="scale(0.015625)"/>
        <path id="DejaVuSans-35" d="M 691 4666 
L 3169 4666 
L 3169 4134 
L 1269 4134 
L 1269 2991 
Q 1406 3038 1543 3061 
Q 1681 3084 1819 3084 
Q 2600 3084 3056 2656 
Q 3513 2228 3513 1497 
Q 3513 744 3044 326 
Q 2575 -91 1722 -91 
Q 1428 -91 1123 -41 
Q 819 9 494 109 
L 494 744 
Q 775 591 1075 516 
Q 1375 441 1709 441 
Q 2250 441 2565 725 
Q 2881 1009 2881 1497 
Q 2881 1984 2565 2268 
Q 2250 2553 1709 2553 
Q 1456 2553 1204 2497 
Q 953 2441 691 2322 
L 691 4666 
z
" transform="scale(0.015625)"/>
       </defs>
       <use xlink:href="#DejaVuSans-31"/>
       <use xlink:href="#DejaVuSans-33" x="63.623047"/>
       <use xlink:href="#DejaVuSans-35" x="127.246094"/>
      </g>
     </g>
    </g>
    <g id="ytick_2">
     <g id="line2d_4">
      <g>
       <use xlink:href="#mb0fea9bc2b" x="75.28" y="298.644483" style="stroke: #000000; stroke-width: 0.8"/>
      </g>
     </g>
     <g id="text_4">
      <!-- 140 -->
      <g transform="translate(7.2 310.801983) scale(0.32 -0.32)">
       <use xlink:href="#DejaVuSans-31"/>
       <use xlink:href="#DejaVuSans-34" x="63.623047"/>
       <use xlink:href="#DejaVuSans-30" x="127.246094"/>
      </g>
     </g>
    </g>
    <g id="ytick_3">
     <g id="line2d_5">
      <g>
       <use xlink:href="#mb0fea9bc2b" x="75.28" y="81.582414" style="stroke: #000000; stroke-width: 0.8"/>
      </g>
     </g>
     <g id="text_5">
      <!-- 145 -->
      <g transform="translate(7.2 93.739914) scale(0.32 -0.32)">
       <use xlink:href="#DejaVuSans-31"/>
       <use xlink:href="#DejaVuSans-34" x="63.623047"/>
       <use xlink:href="#DejaVuSans-35" x="127.246094"/>
      </g>
     </g>
    </g>
   </g>
   <g id="line2d_6">
    <path d="M 103.929545 406.807147 
L 104.960929 406.807147 
L 105.075527 390.447597 
L 106.106911 390.447597 
L 106.221509 331.185168 
L 107.252893 331.185168 
L 107.367491 335.642118 
L 108.398875 335.642118 
L 108.513473 331.649116 
L 109.544856 331.649116 
L 109.774053 331.466727 
L 110.690838 331.466727 
L 110.805436 332.587319 
L 111.83682 332.587319 
L 111.951418 333.681935 
L 112.982802 333.681935 
L 113.0974 330.529028 
L 114.128784 330.529028 
L 114.243382 340.367473 
L 115.274765 340.367473 
L 115.389364 347.552329 
L 116.420747 347.552329 
L 116.535345 347.095171 
L 117.566729 347.095171 
L 117.681327 348.372841 
L 118.712711 348.372841 
L 118.827309 340.271672 
L 119.858693 340.271672 
L 120.087889 340.538839 
L 121.004675 340.538839 
L 121.119273 338.357309 
L 122.150656 338.357309 
L 122.265255 336.380775 
L 123.296638 336.380775 
L 123.411236 341.735851 
L 124.44262 341.735851 
L 124.557218 334.707649 
L 125.588602 334.707649 
L 125.7032 333.255562 
L 126.734584 333.255562 
L 126.849182 336.076594 
L 127.880565 336.076594 
L 127.995164 340.043539 
L 129.026547 340.043539 
L 129.141145 334.000174 
L 130.172529 334.000174 
L 130.287127 243.669914 
L 131.318511 243.669914 
L 131.433109 208.692054 
L 132.464493 208.692054 
L 132.579091 212.994745 
L 133.610475 212.994745 
L 133.725073 211.773448 
L 134.756456 211.773448 
L 134.871055 216.356964 
L 135.902438 216.356964 
L 136.017036 213.528805 
L 137.04842 213.528805 
L 137.163018 185.192996 
L 138.194402 185.192996 
L 138.309 169.013681 
L 139.340384 169.013681 
L 139.454982 165.564459 
L 140.486365 165.564459 
L 140.600964 174.000157 
L 141.632347 174.000157 
L 141.746945 176.256483 
L 142.778329 176.256483 
L 142.892927 167.809663 
L 143.924311 167.809663 
L 144.038909 159.209713 
L 145.070293 159.209713 
L 145.184891 143.483242 
L 146.216275 143.483242 
L 146.330873 166.576118 
L 147.362256 166.576118 
L 147.476855 173.482576 
L 148.508238 173.482576 
L 148.622836 214.452802 
L 149.65422 214.452802 
L 149.768818 242.883465 
L 150.800202 242.883465 
L 150.9148 256.970563 
L 151.946184 256.970563 
L 152.060782 272.683763 
L 153.092165 272.683763 
L 153.206764 238.378249 
L 154.238147 238.378249 
L 154.352745 235.553367 
L 155.384129 235.553367 
L 155.498727 245.875387 
L 156.530111 245.875387 
L 156.644709 251.692908 
L 157.676093 251.692908 
L 157.790691 280.156855 
L 158.822075 280.156855 
L 158.936673 297.025646 
L 159.968056 297.025646 
L 160.082655 281.64041 
L 161.114038 281.64041 
L 161.228636 283.710533 
L 162.26002 283.710533 
L 162.374618 276.221499 
L 163.406002 276.221499 
L 163.5206 302.957472 
L 164.551984 302.957472 
L 164.666582 307.076064 
L 165.697965 307.076064 
L 165.927162 307.192276 
L 166.843947 307.192276 
L 166.958545 322.454448 
L 167.989929 322.454448 
L 168.104527 327.354851 
L 169.135911 327.354851 
L 169.250509 324.816637 
L 170.281893 324.816637 
L 170.396491 319.021203 
L 171.427875 319.021203 
L 171.657071 318.612595 
L 172.573856 318.612595 
L 172.688455 320.112802 
L 173.719838 320.112802 
L 173.834436 315.301948 
L 174.86582 315.301948 
L 174.980418 311.46323 
L 176.011802 311.46323 
L 176.1264 315.721581 
L 177.157784 315.721581 
L 177.272382 309.603441 
L 178.303765 309.603441 
L 178.418364 305.967706 
L 179.449747 305.967706 
L 179.564345 311.531106 
L 180.595729 311.531106 
L 180.710327 301.06493 
L 181.741711 301.06493 
L 181.856309 289.289702 
L 182.887693 289.289702 
L 183.002291 288.051169 
L 184.033675 288.051169 
L 184.148273 295.249151 
L 185.179656 295.249151 
L 185.294255 319.536405 
L 186.325638 319.536405 
L 186.440236 344.528454 
L 187.47162 344.528454 
L 187.586218 365.994139 
L 188.617602 365.994139 
L 188.7322 375.461173 
L 189.763584 375.461173 
L 189.878182 346.983501 
L 190.909565 346.983501 
L 191.024164 341.849225 
L 192.055547 341.849225 
L 192.170145 336.522153 
L 193.201529 336.522153 
L 193.316127 346.94321 
L 194.347511 346.94321 
L 194.462109 353.469779 
L 196.639475 353.462567 
L 196.754073 355.937941 
L 197.785456 355.937941 
L 197.900055 344.190026 
L 198.931438 344.190026 
L 199.046036 346.393756 
L 200.07742 346.393756 
L 200.192018 347.443361 
L 201.223402 347.443361 
L 201.338 350.146337 
L 202.369384 350.146337 
L 202.483982 297.07578 
L 203.515365 297.07578 
L 203.629964 298.942888 
L 205.807329 298.89438 
L 205.921927 308.194748 
L 206.953311 308.194748 
L 207.067909 337.977311 
L 208.099293 337.977311 
L 208.213891 341.526036 
L 209.245275 341.526036 
L 209.359873 345.334847 
L 210.391256 345.334847 
L 210.505855 367.487802 
L 211.537238 367.487802 
L 211.651836 373.394821 
L 212.68322 373.394821 
L 212.797818 381.343628 
L 213.829202 381.343628 
L 213.9438 387.377984 
L 214.975184 387.377984 
L 215.089782 390.626606 
L 216.121165 390.626606 
L 216.235764 401.343613 
L 217.267147 401.343613 
L 217.381745 404.200553 
L 218.413129 404.200553 
L 218.642325 404.605541 
L 219.559111 404.605541 
L 219.673709 408.738076 
L 220.705093 408.738076 
L 220.819691 402.684626 
L 221.851075 402.684626 
L 221.965673 406.090462 
L 222.997056 406.090462 
L 223.111655 417.894462 
L 224.143038 417.894462 
L 224.257636 410.971624 
L 225.28902 410.971624 
L 225.403618 418.787717 
L 226.435002 418.787717 
L 226.5496 480.288482 
L 227.580984 480.288482 
L 227.695582 478.598661 
L 228.726965 478.598661 
L 228.841564 414.274117 
L 229.872947 414.274117 
L 229.987545 411.73954 
L 231.018929 411.73954 
L 231.133527 408.430692 
L 232.164911 408.430692 
L 232.279509 406.14748 
L 233.310893 406.14748 
L 233.425491 403.32848 
L 234.456875 403.32848 
L 234.571473 412.098539 
L 235.602856 412.098539 
L 235.717455 409.632245 
L 236.748838 409.632245 
L 236.863436 411.255586 
L 237.89482 411.255586 
L 238.124016 411.415272 
L 239.040802 411.415272 
L 239.1554 423.809978 
L 240.186784 423.809978 
L 240.301382 368.884348 
L 241.332765 368.884348 
L 241.447364 351.882437 
L 242.478747 351.882437 
L 242.593345 350.651594 
L 243.624729 350.651594 
L 243.739327 358.625033 
L 244.770711 358.625033 
L 244.885309 386.89999 
L 245.916693 386.89999 
L 246.031291 399.167379 
L 247.062675 399.167379 
L 247.177273 421.064438 
L 248.208656 421.064438 
L 248.323255 390.176775 
L 249.354638 390.176775 
L 249.469236 288.460278 
L 250.50062 288.460278 
L 250.615218 305.525653 
L 251.646602 305.525653 
L 251.7612 339.261961 
L 252.792584 339.261961 
L 252.907182 395.564018 
L 253.938565 395.564018 
L 254.053164 410.777833 
L 255.084547 410.777833 
L 255.199145 400.942094 
L 256.230529 400.942094 
L 256.345127 326.832943 
L 257.376511 326.832943 
L 257.491109 312.401516 
L 258.522493 312.401516 
L 258.637091 319.980557 
L 259.668475 319.980557 
L 259.783073 328.500369 
L 260.814456 328.500369 
L 260.929055 356.313001 
L 261.960438 356.313001 
L 262.075036 340.373571 
L 263.10642 340.373571 
L 263.221018 361.469318 
L 264.252402 361.469318 
L 264.367 129.472392 
L 265.398384 129.472392 
L 265.512982 113.689572 
L 266.544365 113.689572 
L 266.658964 112.931578 
L 267.690347 112.931578 
L 267.804945 122.031484 
L 268.836329 122.031484 
L 269.065525 121.897919 
L 269.982311 121.897919 
L 270.096909 87.586607 
L 271.128293 87.586607 
L 271.242891 231.380802 
L 272.274275 231.380802 
L 272.388873 241.949363 
L 273.420256 241.949363 
L 273.534855 283.051399 
L 274.566238 283.051399 
L 274.680836 279.924012 
L 275.71222 279.924012 
L 275.826818 346.722013 
L 276.858202 346.722013 
L 276.9728 355.351167 
L 278.004184 355.351167 
L 278.118782 363.868601 
L 279.150165 363.868601 
L 279.264764 407.763437 
L 280.296147 407.763437 
L 280.410745 408.654809 
L 281.442129 408.654809 
L 281.556727 408.192613 
L 282.588111 408.192613 
L 282.702709 416.369935 
L 283.734093 416.369935 
L 283.848691 418.30587 
L 284.880075 418.30587 
L 285.109271 418.154346 
L 286.026056 418.154346 
L 286.140655 417.237681 
L 287.172038 417.237681 
L 287.286636 413.611044 
L 288.31802 413.611044 
L 288.432618 410.604418 
L 289.464002 410.604418 
L 289.5786 403.83563 
L 290.609984 403.83563 
L 290.724582 405.950278 
L 291.755965 405.950278 
L 291.870564 409.894511 
L 292.901947 409.894511 
L 293.131144 410.291659 
L 294.047929 410.291659 
L 294.162527 419.263618 
L 295.193911 419.263618 
L 295.308509 424.308683 
L 296.339893 424.308683 
L 296.454491 424.950243 
L 297.485875 424.950243 
L 297.600473 428.783785 
L 298.631856 428.783785 
L 298.746455 458.315277 
L 299.777838 458.315277 
L 299.892436 460.134046 
L 300.92382 460.134046 
L 301.038418 460.590045 
L 302.069802 460.590045 
L 302.1844 461.710592 
L 303.215784 461.710592 
L 303.330382 487.952991 
L 304.361765 487.952991 
L 304.476364 489.078723 
L 305.507747 489.078723 
L 305.622345 474.631692 
L 306.653729 474.631692 
L 306.768327 455.435835 
L 307.799711 455.435835 
L 307.914309 444.713083 
L 308.945693 444.713083 
L 309.060291 450.518469 
L 310.091675 450.518469 
L 310.206273 455.062601 
L 311.237656 455.062601 
L 311.352255 442.566312 
L 312.383638 442.566312 
L 312.498236 436.652904 
L 313.52962 436.652904 
L 313.644218 441.031929 
L 314.675602 441.031929 
L 314.7902 450.55748 
L 315.821584 450.55748 
L 315.936182 448.539611 
L 316.967565 448.539611 
L 317.082164 434.250908 
L 318.113547 434.250908 
L 318.228145 435.678014 
L 319.259529 435.678014 
L 319.374127 442.794134 
L 320.405511 442.794134 
L 320.520109 442.012458 
L 321.551493 442.012458 
L 321.666091 439.833714 
L 322.697475 439.833714 
L 322.812073 439.363781 
L 323.843456 439.363781 
L 323.958055 441.726929 
L 324.989438 441.726929 
L 325.218635 441.357135 
L 326.13542 441.357135 
L 326.250018 436.669731 
L 327.281402 436.669731 
L 327.396 434.523563 
L 328.427384 434.523563 
L 328.541982 440.766367 
L 329.573365 440.766367 
L 329.687964 440.058907 
L 330.719347 440.058907 
L 330.833945 433.742287 
L 331.865329 433.742287 
L 331.979927 439.862104 
L 333.011311 439.862104 
L 333.125909 430.932277 
L 334.157293 430.932277 
L 334.271891 439.681249 
L 335.303275 439.681249 
L 335.417873 442.82166 
L 336.449256 442.82166 
L 336.563855 439.741348 
L 337.595238 439.741348 
L 337.709836 414.964667 
L 338.74122 414.964667 
L 338.855818 385.126243 
L 339.887202 385.126243 
L 340.0018 390.511346 
L 341.033184 390.511346 
L 341.147782 387.836728 
L 342.179165 387.836728 
L 342.293764 425.92474 
L 343.325147 425.92474 
L 343.439745 431.921528 
L 344.471129 431.921528 
L 344.585727 430.85492 
L 345.617111 430.85492 
L 345.731709 436.38251 
L 346.763093 436.38251 
L 346.877691 428.197862 
L 347.909075 428.197862 
L 348.023673 432.347974 
L 349.055056 432.347974 
L 349.169655 441.842496 
L 350.201038 441.842496 
L 350.315636 381.512386 
L 351.34702 381.512386 
L 351.461618 328.869146 
L 352.493002 328.869146 
L 352.6076 321.843889 
L 353.638984 321.843889 
L 353.753582 311.877747 
L 354.784965 311.877747 
L 354.899564 316.524679 
L 355.930947 316.524679 
L 356.045545 312.500627 
L 357.076929 312.500627 
L 357.191527 324.245182 
L 358.222911 324.245182 
L 358.337509 310.301399 
L 359.368893 310.301399 
L 359.483491 300.09104 
L 360.514875 300.09104 
L 360.629473 298.540301 
L 361.660856 298.540301 
L 361.775455 267.274911 
L 362.806838 267.274911 
L 362.921436 242.293228 
L 363.95282 242.293228 
L 364.067418 245.952271 
L 365.098802 245.952271 
L 365.327998 246.265199 
L 366.244784 246.265199 
L 366.359382 255.407155 
L 367.390765 255.407155 
L 367.505364 272.002414 
L 368.536747 272.002414 
L 368.651345 295.684272 
L 369.682729 295.684272 
L 369.797327 285.440736 
L 370.828711 285.440736 
L 370.943309 262.533687 
L 371.974693 262.533687 
L 372.089291 269.780029 
L 373.120675 269.780029 
L 373.235273 265.140083 
L 374.266656 265.140083 
L 374.381255 264.202187 
L 375.412638 264.202187 
L 375.527236 262.497285 
L 376.55862 262.497285 
L 376.673218 259.541592 
L 377.704602 259.541592 
L 377.8192 254.379248 
L 378.850584 254.379248 
L 378.965182 247.038173 
L 379.996565 247.038173 
L 380.111164 296.428901 
L 381.142547 296.428901 
L 381.257145 369.446742 
L 382.288529 369.446742 
L 382.403127 411.19451 
L 383.434511 411.19451 
L 383.549109 414.919704 
L 384.580493 414.919704 
L 384.695091 430.726282 
L 385.726475 430.726282 
L 385.841073 434.698295 
L 386.872456 434.698295 
L 386.987055 438.880686 
L 388.018438 438.880686 
L 388.133036 446.069882 
L 389.16442 446.069882 
L 389.279018 451.610494 
L 390.310402 451.610494 
L 390.425 438.545286 
L 391.456384 438.545286 
L 391.570982 423.82697 
L 392.602365 423.82697 
L 392.716964 422.314911 
L 393.748347 422.314911 
L 393.862945 426.625566 
L 394.894329 426.625566 
L 395.008927 433.264215 
L 396.040311 433.264215 
L 396.269507 432.943882 
L 397.186293 432.943882 
L 397.300891 430.580303 
L 398.332275 430.580303 
L 398.446873 434.998163 
L 399.478256 434.998163 
L 399.592855 431.987156 
L 400.624238 431.987156 
L 400.738836 439.821679 
L 401.77022 439.821679 
L 401.884818 455.435353 
L 402.916202 455.435353 
L 403.0308 453.332372 
L 404.062184 453.332372 
L 404.176782 448.856616 
L 405.208165 448.856616 
L 405.437362 449.101531 
L 406.354147 449.101531 
L 406.468745 453.670112 
L 407.500129 453.670112 
L 407.614727 442.548912 
L 408.646111 442.548912 
L 408.760709 438.323186 
L 409.792093 438.323186 
L 409.906691 435.079175 
L 410.938075 435.079175 
L 411.052673 435.591352 
L 412.084056 435.591352 
L 412.198655 439.186413 
L 413.230038 439.186413 
L 413.344636 434.427623 
L 414.37602 434.427623 
L 414.490618 436.623007 
L 415.522002 436.623007 
L 415.6366 435.904035 
L 416.667984 435.904035 
L 416.782582 441.608817 
L 417.813965 441.608817 
L 417.928564 433.643512 
L 418.959947 433.643512 
L 419.074545 439.3779 
L 420.105929 439.3779 
L 420.220527 436.050735 
L 421.251911 436.050735 
L 421.366509 438.442243 
L 422.397893 438.442243 
L 422.512491 432.237794 
L 423.543875 432.237794 
L 423.658473 435.09941 
L 424.689856 435.09941 
L 424.804455 441.708887 
L 425.835838 441.708887 
L 425.950436 434.819321 
L 426.98182 434.819321 
L 427.096418 444.622949 
L 428.127802 444.622949 
L 428.2424 445.557505 
L 429.273784 445.557505 
L 429.388382 448.068892 
L 430.419765 448.068892 
L 430.534364 443.994616 
L 431.565747 443.994616 
L 431.794944 443.583914 
L 432.711729 443.583914 
L 432.826327 437.885217 
L 433.857711 437.885217 
L 433.972309 437.038282 
L 436.149675 437.106733 
L 436.264273 441.134006 
L 437.295656 441.134006 
L 437.410255 434.503119 
L 438.441638 434.503119 
L 438.556236 429.941808 
L 439.58762 429.941808 
L 439.702218 339.84242 
L 440.733602 339.84242 
L 440.8482 263.966614 
L 441.879584 263.966614 
L 441.994182 231.686919 
L 443.025565 231.686919 
L 443.140164 222.218616 
L 444.171547 222.218616 
L 444.286145 248.341277 
L 445.317529 248.341277 
L 445.432127 245.33333 
L 446.463511 245.33333 
L 446.578109 236.74311 
L 447.609493 236.74311 
L 447.724091 208.833795 
L 448.755475 208.833795 
L 448.870073 213.524232 
L 449.901456 213.524232 
L 450.016055 198.882051 
L 451.047438 198.882051 
L 451.162036 188.911181 
L 452.19342 188.911181 
L 452.308018 176.17537 
L 453.339402 176.17537 
L 453.454 184.241861 
L 454.485384 184.241861 
L 454.599982 168.422678 
L 455.631365 168.422678 
L 455.745964 193.186856 
L 456.777347 193.186856 
L 456.891945 155.191003 
L 457.923329 155.191003 
L 458.037927 157.343112 
L 459.069311 157.343112 
L 459.183909 143.230765 
L 460.215293 143.230765 
L 460.329891 133.957724 
L 461.361275 133.957724 
L 461.475873 127.026425 
L 462.507256 127.026425 
L 462.621855 116.285046 
L 463.653238 116.285046 
L 463.767836 114.804441 
L 464.79922 114.804441 
L 464.913818 109.423359 
L 465.945202 109.423359 
L 466.174398 109.156517 
L 467.091184 109.156517 
L 467.205782 133.446327 
L 468.237165 133.446327 
L 468.351764 141.442887 
L 469.383147 141.442887 
L 469.497745 114.353981 
L 470.529129 114.353981 
L 470.643727 105.154759 
L 471.675111 105.154759 
L 471.789709 120.572529 
L 472.821093 120.572529 
L 472.935691 158.728455 
L 473.967075 158.728455 
L 474.081673 175.773921 
L 475.113056 175.773921 
L 475.227655 167.087624 
L 476.259038 167.087624 
L 476.373636 156.24819 
L 477.40502 156.24819 
L 477.519618 145.140598 
L 478.551002 145.140598 
L 478.6656 160.605069 
L 479.696984 160.605069 
L 479.811582 164.777302 
L 480.842965 164.777302 
L 480.957564 181.853837 
L 481.988947 181.853837 
L 482.103545 185.848813 
L 483.134929 185.848813 
L 483.249527 196.682302 
L 484.280911 196.682302 
L 484.395509 214.728509 
L 485.426893 214.728509 
L 485.541491 210.815169 
L 486.572875 210.815169 
L 486.687473 215.1309 
L 487.718856 215.1309 
L 487.833455 212.952597 
L 488.864838 212.952597 
L 488.979436 214.394717 
L 490.01082 214.394717 
L 490.125418 212.883267 
L 491.156802 212.883267 
L 491.2714 220.494957 
L 492.302784 220.494957 
L 492.53198 220.174529 
L 493.448765 220.174529 
L 493.563364 217.085534 
L 494.594747 217.085534 
L 494.709345 218.51552 
L 495.740729 218.51552 
L 495.855327 216.249865 
L 496.886711 216.249865 
L 497.001309 220.245555 
L 498.032693 220.245555 
L 498.147291 213.423396 
L 499.178675 213.423396 
L 499.293273 227.233318 
L 500.324656 227.233318 
L 500.439255 222.245555 
L 501.470638 222.245555 
L 501.585236 229.242879 
L 502.61662 229.242879 
L 502.731218 222.022624 
L 503.762602 222.022624 
L 503.8772 226.495032 
L 504.908584 226.495032 
L 505.023182 229.176126 
L 506.054565 229.176126 
L 506.169164 230.677179 
L 507.200547 230.677179 
L 507.315145 236.153093 
L 508.346529 236.153093 
L 508.461127 229.83937 
L 509.492511 229.83937 
L 509.607109 232.653053 
L 510.638493 232.653053 
L 510.753091 246.318714 
L 511.784475 246.318714 
L 511.899073 241.487043 
L 512.930456 241.487043 
L 513.045055 246.746548 
L 514.076438 246.746548 
L 514.191036 251.853911 
L 515.22242 251.853911 
L 515.337018 259.613646 
L 516.368402 259.613646 
L 516.483 265.964679 
L 517.514384 265.964679 
L 517.628982 271.01033 
L 518.660365 271.01033 
L 518.774964 280.271849 
L 519.806347 280.271849 
L 519.920945 282.487701 
L 520.952329 282.487701 
L 521.066927 281.993173 
L 522.098311 281.993173 
L 522.212909 287.888034 
L 523.244293 287.888034 
L 523.358891 294.683778 
L 524.390275 294.683778 
L 524.504873 295.620725 
L 525.536256 295.620725 
L 525.650855 296.447286 
L 526.682238 296.447286 
L 526.796836 298.130526 
L 527.82822 298.130526 
L 527.942818 296.590608 
L 528.974202 296.590608 
L 529.0888 297.251385 
L 530.120184 297.251385 
L 530.234782 301.890699 
L 531.266165 301.890699 
L 531.380764 298.850059 
L 532.412147 298.850059 
L 532.526745 293.649396 
L 533.558129 293.649396 
L 533.672727 291.844818 
L 534.704111 291.844818 
L 534.818709 297.252773 
L 535.850093 297.252773 
L 535.964691 304.610215 
L 536.996075 304.610215 
L 537.110673 310.855067 
L 538.142056 310.855067 
L 538.256655 308.291936 
L 539.288038 308.291936 
L 539.402636 303.382401 
L 541.580002 303.316123 
L 541.6946 302.702649 
L 542.725984 302.702649 
L 542.840582 306.008953 
L 543.871965 306.008953 
L 543.986564 300.724915 
L 545.017947 300.724915 
L 545.132545 304.068265 
L 546.163929 304.068265 
L 546.278527 299.242181 
L 547.309911 299.242181 
L 547.424509 273.180969 
L 548.455893 273.180969 
L 548.570491 277.477798 
L 549.601875 277.477798 
L 549.716473 282.666205 
L 550.747856 282.666205 
L 550.862455 279.529403 
L 551.893838 279.529403 
L 552.008436 272.73249 
L 553.03982 272.73249 
L 553.154418 269.040435 
L 554.185802 269.040435 
L 554.3004 257.285117 
L 555.331784 257.285117 
L 555.446382 204.282322 
L 556.477765 204.282322 
L 556.592364 190.379657 
L 557.623747 190.379657 
L 557.738345 192.4136 
L 558.769729 192.4136 
L 558.884327 191.381887 
L 559.915711 191.381887 
L 560.030309 203.020793 
L 561.061693 203.020793 
L 561.176291 210.575041 
L 562.207675 210.575041 
L 562.322273 214.967021 
L 563.353656 214.967021 
L 563.468255 217.762551 
L 564.499638 217.762551 
L 564.614236 222.543442 
L 565.64562 222.543442 
L 565.760218 244.098772 
L 566.791602 244.098772 
L 566.9062 264.888986 
L 567.937584 264.888986 
L 568.052182 258.905914 
L 569.083565 258.905914 
L 569.198164 258.063961 
L 570.229547 258.063961 
L 570.344145 260.545959 
L 571.375529 260.545959 
L 571.490127 259.491456 
L 572.521511 259.491456 
L 572.636109 268.56304 
L 573.667493 268.56304 
L 573.782091 257.463555 
L 574.813475 257.463555 
L 574.928073 192.502368 
L 575.959456 192.502368 
L 576.074055 173.37682 
L 577.105438 173.37682 
L 577.220036 179.842359 
L 578.25142 179.842359 
L 578.366018 185.787027 
L 579.397402 185.787027 
L 579.512 200.867871 
L 580.543384 200.867871 
L 580.657982 202.700386 
L 581.689365 202.700386 
L 581.803964 183.841221 
L 582.835347 183.841221 
L 582.949945 192.699857 
L 583.981329 192.699857 
L 584.095927 194.188374 
L 585.127311 194.188374 
L 585.241909 219.669181 
L 586.273293 219.669181 
L 586.387891 212.782964 
L 588.565256 212.845092 
L 588.679855 194.422051 
L 589.711238 194.422051 
L 589.825836 206.382111 
L 590.85722 206.382111 
L 590.971818 204.084612 
L 592.003202 204.084612 
L 592.1178 222.094729 
L 593.149184 222.094729 
L 593.263782 230.479698 
L 594.295165 230.479698 
L 594.409764 229.62732 
L 595.441147 229.62732 
L 595.555745 571.727664 
L 596.587129 571.727664 
L 596.701727 565.04561 
L 597.733111 565.04561 
L 597.962307 565.251071 
L 598.879093 565.251071 
L 598.993691 540.084011 
L 600.025075 540.084011 
L 600.139673 537.032079 
L 601.171056 537.032079 
L 601.285655 541.032673 
L 602.317038 541.032673 
L 602.546235 541.215268 
L 603.46302 541.215268 
L 603.577618 524.41292 
L 604.609002 524.41292 
L 604.7236 499.502459 
L 605.754984 499.502459 
L 605.869582 498.09256 
L 606.900965 498.09256 
L 607.015564 495.015753 
L 608.046947 495.015753 
L 608.276144 494.855335 
L 609.192929 494.855335 
L 609.307527 493.870413 
L 610.338911 493.870413 
L 610.453509 494.965899 
L 611.484893 494.965899 
L 611.599491 498.908609 
L 612.630875 498.908609 
L 612.745473 498.214801 
L 613.776856 498.214801 
L 613.891455 510.608684 
L 614.922838 510.608684 
L 615.037436 508.7785 
L 616.06882 508.7785 
L 616.183418 506.118903 
L 617.214802 506.118903 
L 617.3294 506.950499 
L 618.360784 506.950499 
L 618.475382 510.511128 
L 619.506765 510.511128 
L 619.621364 514.869798 
L 620.652747 514.869798 
L 620.767345 519.452679 
L 621.798729 519.452679 
L 621.913327 523.495429 
L 622.944711 523.495429 
L 623.059309 514.763307 
L 624.090693 514.763307 
L 624.205291 511.225915 
L 625.236675 511.225915 
L 625.351273 509.548809 
L 626.382656 509.548809 
L 626.497255 511.229548 
L 627.528638 511.229548 
L 627.643236 512.123843 
L 628.67462 512.123843 
L 628.789218 514.104293 
L 629.820602 514.104293 
L 629.9352 513.650129 
L 630.966584 513.650129 
L 631.081182 519.069722 
L 632.112565 519.069722 
L 632.227164 516.939137 
L 633.258547 516.939137 
L 633.373145 397.432237 
L 634.404529 397.432237 
L 634.519127 245.745684 
L 635.550511 245.745684 
L 635.665109 236.52315 
L 636.696493 236.52315 
L 636.811091 231.486592 
L 637.842475 231.486592 
L 637.957073 197.925011 
L 638.988456 197.925011 
L 639.103055 195.49245 
L 640.134438 195.49245 
L 640.249036 191.618099 
L 641.28042 191.618099 
L 641.395018 185.304663 
L 642.426402 185.304663 
L 642.541 162.426779 
L 643.572384 162.426779 
L 643.686982 154.980054 
L 644.718365 154.980054 
L 644.832964 139.581038 
L 645.864347 139.581038 
L 645.978945 143.159167 
L 647.010329 143.159167 
L 647.124927 162.824366 
L 648.156311 162.824366 
L 648.270909 173.616659 
L 649.302293 173.616659 
L 649.416891 172.984938 
L 650.448275 172.984938 
L 650.562873 184.558667 
L 651.594256 184.558667 
L 651.708855 216.283584 
L 652.740238 216.283584 
L 652.854836 218.065679 
L 653.88622 218.065679 
L 654.000818 235.300018 
L 655.032202 235.300018 
L 655.1468 252.911154 
L 656.178184 252.911154 
L 656.292782 234.093532 
L 657.324165 234.093532 
L 657.438764 217.179594 
L 658.470147 217.179594 
L 658.584745 232.800334 
L 659.616129 232.800334 
L 659.730727 217.833915 
L 660.762111 217.833915 
L 660.876709 223.990565 
L 661.908093 223.990565 
L 662.022691 226.012999 
L 663.054075 226.012999 
L 663.168673 220.490504 
L 664.200056 220.490504 
L 664.314655 217.454809 
L 665.346038 217.454809 
L 665.575235 217.623909 
L 666.49202 217.623909 
L 666.721216 217.45633 
L 667.638002 217.45633 
L 667.7526 215.093368 
L 668.783984 215.093368 
L 668.898582 233.909515 
L 669.929965 233.909515 
L 670.044564 229.227372 
L 671.075947 229.227372 
L 671.190545 211.246061 
L 672.221929 211.246061 
L 672.336527 226.859853 
L 673.367911 226.859853 
L 673.482509 230.537128 
L 674.513893 230.537128 
L 674.628491 224.534872 
L 675.659875 224.534872 
L 675.774473 228.315924 
L 676.805856 228.315924 
L 676.805856 228.315924 
" clip-path="url(#p86b261b904)" style="fill: none; stroke: #1f77b4; stroke-width: 1.5; stroke-linecap: square"/>
   </g>
   <g id="patch_3">
    <path d="M 75.28 667.65 
L 75.28 38.17 
" style="fill: none; stroke: #000000; stroke-width: 0.8; stroke-linejoin: miter; stroke-linecap: square"/>
   </g>
   <g id="patch_4">
    <path d="M 705.57 667.65 
L 705.57 38.17 
" style="fill: none; stroke: #000000; stroke-width: 0.8; stroke-linejoin: miter; stroke-linecap: square"/>
   </g>
   <g id="patch_5">
    <path d="M 75.28 667.65 
L 705.57 667.65 
" style="fill: none; stroke: #000000; stroke-width: 0.8; stroke-linejoin: miter; stroke-linecap: square"/>
   </g>
   <g id="patch_6">
    <path d="M 75.28 38.17 
L 705.57 38.17 
" style="fill: none; stroke: #000000; stroke-width: 0.8; stroke-linejoin: miter; stroke-linecap: square"/>
   </g>
   <g id="text_6">
    <!-- ~ -->
    <g transform="translate(17.980909 645.943793) scale(0.32 -0.32)">
     <defs>
      <path id="DejaVuSans-7e" d="M 4684 2553 
L 4684 1997 
Q 4356 1750 4076 1644 
Q 3797 1538 3494 1538 
Q 3150 1538 2694 1722 
Q 2659 1734 2644 1741 
Q 2622 1750 2575 1766 
Q 2091 1959 1797 1959 
Q 1522 1959 1253 1839 
Q 984 1719 678 1459 
L 678 2016 
Q 1006 2263 1286 2370 
Q 1566 2478 1869 2478 
Q 2213 2478 2672 2291 
Q 2703 2278 2719 2272 
Q 2744 2263 2788 2247 
Q 3272 2053 3566 2053 
Q 3834 2053 4098 2172 
Q 4363 2291 4684 2553 
z
" transform="scale(0.015625)"/>
     </defs>
     <use xlink:href="#DejaVuSans-7e"/>
    </g>
   </g>
   <g id="text_7">
    <!-- 0 -->
    <g transform="translate(17.980909 700.20931) scale(0.32 -0.32)">
     <use xlink:href="#DejaVuSans-30"/>
    </g>
   </g>
   <g id="text_8">
    <!-- Window size: 10 -->
    <g transform="translate(260.405 31.515) scale(0.32 -0.32)">
     <defs>
      <path id="DejaVuSans-57" d="M 213 4666 
L 850 4666 
L 1831 722 
L 2809 4666 
L 3519 4666 
L 4500 722 
L 5478 4666 
L 6119 4666 
L 4947 0 
L 4153 0 
L 3169 4050 
L 2175 0 
L 1381 0 
L 213 4666 
z
" transform="scale(0.015625)"/>
      <path id="DejaVuSans-69" d="M 603 3500 
L 1178 3500 
L 1178 0 
L 603 0 
L 603 3500 
z
M 603 4863 
L 1178 4863 
L 1178 4134 
L 603 4134 
L 603 4863 
z
" transform="scale(0.015625)"/>
      <path id="DejaVuSans-6e" d="M 3513 2113 
L 3513 0 
L 2938 0 
L 2938 2094 
Q 2938 2591 2744 2837 
Q 2550 3084 2163 3084 
Q 1697 3084 1428 2787 
Q 1159 2491 1159 1978 
L 1159 0 
L 581 0 
L 581 3500 
L 1159 3500 
L 1159 2956 
Q 1366 3272 1645 3428 
Q 1925 3584 2291 3584 
Q 2894 3584 3203 3211 
Q 3513 2838 3513 2113 
z
" transform="scale(0.015625)"/>
      <path id="DejaVuSans-64" d="M 2906 2969 
L 2906 4863 
L 3481 4863 
L 3481 0 
L 2906 0 
L 2906 525 
Q 2725 213 2448 61 
Q 2172 -91 1784 -91 
Q 1150 -91 751 415 
Q 353 922 353 1747 
Q 353 2572 751 3078 
Q 1150 3584 1784 3584 
Q 2172 3584 2448 3432 
Q 2725 3281 2906 2969 
z
M 947 1747 
Q 947 1113 1208 752 
Q 1469 391 1925 391 
Q 2381 391 2643 752 
Q 2906 1113 2906 1747 
Q 2906 2381 2643 2742 
Q 2381 3103 1925 3103 
Q 1469 3103 1208 2742 
Q 947 2381 947 1747 
z
" transform="scale(0.015625)"/>
      <path id="DejaVuSans-6f" d="M 1959 3097 
Q 1497 3097 1228 2736 
Q 959 2375 959 1747 
Q 959 1119 1226 758 
Q 1494 397 1959 397 
Q 2419 397 2687 759 
Q 2956 1122 2956 1747 
Q 2956 2369 2687 2733 
Q 2419 3097 1959 3097 
z
M 1959 3584 
Q 2709 3584 3137 3096 
Q 3566 2609 3566 1747 
Q 3566 888 3137 398 
Q 2709 -91 1959 -91 
Q 1206 -91 779 398 
Q 353 888 353 1747 
Q 353 2609 779 3096 
Q 1206 3584 1959 3584 
z
" transform="scale(0.015625)"/>
      <path id="DejaVuSans-77" d="M 269 3500 
L 844 3500 
L 1563 769 
L 2278 3500 
L 2956 3500 
L 3675 769 
L 4391 3500 
L 4966 3500 
L 4050 0 
L 3372 0 
L 2619 2869 
L 1863 0 
L 1184 0 
L 269 3500 
z
" transform="scale(0.015625)"/>
      <path id="DejaVuSans-20" transform="scale(0.015625)"/>
      <path id="DejaVuSans-73" d="M 2834 3397 
L 2834 2853 
Q 2591 2978 2328 3040 
Q 2066 3103 1784 3103 
Q 1356 3103 1142 2972 
Q 928 2841 928 2578 
Q 928 2378 1081 2264 
Q 1234 2150 1697 2047 
L 1894 2003 
Q 2506 1872 2764 1633 
Q 3022 1394 3022 966 
Q 3022 478 2636 193 
Q 2250 -91 1575 -91 
Q 1294 -91 989 -36 
Q 684 19 347 128 
L 347 722 
Q 666 556 975 473 
Q 1284 391 1588 391 
Q 1994 391 2212 530 
Q 2431 669 2431 922 
Q 2431 1156 2273 1281 
Q 2116 1406 1581 1522 
L 1381 1569 
Q 847 1681 609 1914 
Q 372 2147 372 2553 
Q 372 3047 722 3315 
Q 1072 3584 1716 3584 
Q 2034 3584 2315 3537 
Q 2597 3491 2834 3397 
z
" transform="scale(0.015625)"/>
      <path id="DejaVuSans-7a" d="M 353 3500 
L 3084 3500 
L 3084 2975 
L 922 459 
L 3084 459 
L 3084 0 
L 275 0 
L 275 525 
L 2438 3041 
L 353 3041 
L 353 3500 
z
" transform="scale(0.015625)"/>
      <path id="DejaVuSans-65" d="M 3597 1894 
L 3597 1613 
L 953 1613 
Q 991 1019 1311 708 
Q 1631 397 2203 397 
Q 2534 397 2845 478 
Q 3156 559 3463 722 
L 3463 178 
Q 3153 47 2828 -22 
Q 2503 -91 2169 -91 
Q 1331 -91 842 396 
Q 353 884 353 1716 
Q 353 2575 817 3079 
Q 1281 3584 2069 3584 
Q 2775 3584 3186 3129 
Q 3597 2675 3597 1894 
z
M 3022 2063 
Q 3016 2534 2758 2815 
Q 2500 3097 2075 3097 
Q 1594 3097 1305 2825 
Q 1016 2553 972 2059 
L 3022 2063 
z
" transform="scale(0.015625)"/>
      <path id="DejaVuSans-3a" d="M 750 794 
L 1409 794 
L 1409 0 
L 750 0 
L 750 794 
z
M 750 3309 
L 1409 3309 
L 1409 2516 
L 750 2516 
L 750 3309 
z
" transform="scale(0.015625)"/>
     </defs>
     <use xlink:href="#DejaVuSans-57"/>
     <use xlink:href="#DejaVuSans-69" x="96.626953"/>
     <use xlink:href="#DejaVuSans-6e" x="124.410156"/>
     <use xlink:href="#DejaVuSans-64" x="187.789062"/>
     <use xlink:href="#DejaVuSans-6f" x="251.265625"/>
     <use xlink:href="#DejaVuSans-77" x="312.447266"/>
     <use xlink:href="#DejaVuSans-20" x="394.234375"/>
     <use xlink:href="#DejaVuSans-73" x="426.021484"/>
     <use xlink:href="#DejaVuSans-69" x="478.121094"/>
     <use xlink:href="#DejaVuSans-7a" x="505.904297"/>
     <use xlink:href="#DejaVuSans-65" x="558.394531"/>
     <use xlink:href="#DejaVuSans-3a" x="619.917969"/>
     <use xlink:href="#DejaVuSans-20" x="653.609375"/>
     <use xlink:href="#DejaVuSans-31" x="685.396484"/>
     <use xlink:href="#DejaVuSans-30" x="749.019531"/>
    </g>
   </g>
  </g>
 </g>
 <defs>
  <clipPath id="p86b261b904">
   <rect x="75.28" y="38.17" width="630.29" height="629.48"/>
  </clipPath>
 </defs>
</svg>
