<?xml version="1.0" encoding="utf-8" standalone="no"?>
<!DOCTYPE svg PUBLIC "-//W3C//DTD SVG 1.1//EN"
  "http://www.w3.org/Graphics/SVG/1.1/DTD/svg11.dtd">
<svg xmlns:xlink="http://www.w3.org/1999/xlink" width="712.77pt" height="714.06431pt" viewBox="0 0 712.77 714.06431" xmlns="http://www.w3.org/2000/svg" version="1.1">
 <metadata>
  <rdf:RDF xmlns:dc="http://purl.org/dc/elements/1.1/" xmlns:cc="http://creativecommons.org/ns#" xmlns:rdf="http://www.w3.org/1999/02/22-rdf-syntax-ns#">
   <cc:Work>
    <dc:type rdf:resource="http://purl.org/dc/dcmitype/StillImage"/>
    <dc:date>2024-07-06T19:01:44.540749</dc:date>
    <dc:format>image/svg+xml</dc:format>
    <dc:creator>
     <cc:Agent>
      <dc:title>Matplotlib v3.9.0, https://matplotlib.org/</dc:title>
     </cc:Agent>
    </dc:creator>
   </cc:Work>
  </rdf:RDF>
 </metadata>
 <defs>
  <style type="text/css">*{stroke-linejoin: round; stroke-linecap: butt}</style>
 </defs>
 <g id="figure_1">
  <g id="patch_1">
   <path d="M 0 714.06431 
L 712.77 714.06431 
L 712.77 0 
L 0 0 
z
" style="fill: #ffffff"/>
  </g>
  <g id="axes_1">
   <g id="patch_2">
    <path d="M 75.28 667.65 
L 705.57 667.65 
L 705.57 38.17 
L 75.28 38.17 
z
" style="fill: #ffffff"/>
   </g>
   <g id="PolyCollection_1">
    <defs>
     <path id="md8db4ae730" d="M 103.929545 -111.532931 
L 103.929545 -24.708103 
L 676.920455 -24.708103 
L 676.920455 -111.532931 
L 676.920455 -111.532931 
L 103.929545 -111.532931 
z
" style="stroke: #d3d3d3; stroke-opacity: 0.2"/>
    </defs>
    <g clip-path="url(#p1f6cfef605)">
     <use xlink:href="#md8db4ae730" x="0" y="714.06431" style="fill: #d3d3d3; fill-opacity: 0.2; stroke: #d3d3d3; stroke-opacity: 0.2"/>
    </g>
   </g>
   <g id="matplotlib.axis_1">
    <g id="xtick_1">
     <g id="line2d_1">
      <defs>
       <path id="m159f474af4" d="M 0 0 
L 0 3.5 
" style="stroke: #000000; stroke-width: 0.8"/>
      </defs>
      <g>
       <use xlink:href="#m159f474af4" x="333.125909" y="667.65" style="stroke: #000000; stroke-width: 0.8"/>
      </g>
     </g>
     <g id="text_1">
      <!-- 2,000 -->
      <g transform="translate(287.320909 698.965) scale(0.32 -0.32)">
       <defs>
        <path id="DejaVuSans-32" d="M 1228 531 
L 3431 531 
L 3431 0 
L 469 0 
L 469 531 
Q 828 903 1448 1529 
Q 2069 2156 2228 2338 
Q 2531 2678 2651 2914 
Q 2772 3150 2772 3378 
Q 2772 3750 2511 3984 
Q 2250 4219 1831 4219 
Q 1534 4219 1204 4116 
Q 875 4013 500 3803 
L 500 4441 
Q 881 4594 1212 4672 
Q 1544 4750 1819 4750 
Q 2544 4750 2975 4387 
Q 3406 4025 3406 3419 
Q 3406 3131 3298 2873 
Q 3191 2616 2906 2266 
Q 2828 2175 2409 1742 
Q 1991 1309 1228 531 
z
" transform="scale(0.015625)"/>
        <path id="DejaVuSans-2c" d="M 750 794 
L 1409 794 
L 1409 256 
L 897 -744 
L 494 -744 
L 750 256 
L 750 794 
z
" transform="scale(0.015625)"/>
        <path id="DejaVuSans-30" d="M 2034 4250 
Q 1547 4250 1301 3770 
Q 1056 3291 1056 2328 
Q 1056 1369 1301 889 
Q 1547 409 2034 409 
Q 2525 409 2770 889 
Q 3016 1369 3016 2328 
Q 3016 3291 2770 3770 
Q 2525 4250 2034 4250 
z
M 2034 4750 
Q 2819 4750 3233 4129 
Q 3647 3509 3647 2328 
Q 3647 1150 3233 529 
Q 2819 -91 2034 -91 
Q 1250 -91 836 529 
Q 422 1150 422 2328 
Q 422 3509 836 4129 
Q 1250 4750 2034 4750 
z
" transform="scale(0.015625)"/>
       </defs>
       <use xlink:href="#DejaVuSans-32"/>
       <use xlink:href="#DejaVuSans-2c" x="63.623047"/>
       <use xlink:href="#DejaVuSans-30" x="95.410156"/>
       <use xlink:href="#DejaVuSans-30" x="159.033203"/>
       <use xlink:href="#DejaVuSans-30" x="222.65625"/>
      </g>
     </g>
    </g>
    <g id="xtick_2">
     <g id="line2d_2">
      <g>
       <use xlink:href="#m159f474af4" x="562.322273" y="667.65" style="stroke: #000000; stroke-width: 0.8"/>
      </g>
     </g>
     <g id="text_2">
      <!-- 4,000 -->
      <g transform="translate(516.517273 698.965) scale(0.32 -0.32)">
       <defs>
        <path id="DejaVuSans-34" d="M 2419 4116 
L 825 1625 
L 2419 1625 
L 2419 4116 
z
M 2253 4666 
L 3047 4666 
L 3047 1625 
L 3713 1625 
L 3713 1100 
L 3047 1100 
L 3047 0 
L 2419 0 
L 2419 1100 
L 313 1100 
L 313 1709 
L 2253 4666 
z
" transform="scale(0.015625)"/>
       </defs>
       <use xlink:href="#DejaVuSans-34"/>
       <use xlink:href="#DejaVuSans-2c" x="63.623047"/>
       <use xlink:href="#DejaVuSans-30" x="95.410156"/>
       <use xlink:href="#DejaVuSans-30" x="159.033203"/>
       <use xlink:href="#DejaVuSans-30" x="222.65625"/>
      </g>
     </g>
    </g>
   </g>
   <g id="matplotlib.axis_2">
    <g id="ytick_1">
     <g id="line2d_3">
      <defs>
       <path id="mdd60534aed" d="M 0 0 
L -3.5 0 
" style="stroke: #000000; stroke-width: 0.8"/>
      </defs>
      <g>
       <use xlink:href="#mdd60534aed" x="75.28" y="515.706552" style="stroke: #000000; stroke-width: 0.8"/>
      </g>
     </g>
     <g id="text_3">
      <!-- 135 -->
      <g transform="translate(7.2 527.864052) scale(0.32 -0.32)">
       <defs>
        <path id="DejaVuSans-31" d="M 794 531 
L 1825 531 
L 1825 4091 
L 703 3866 
L 703 4441 
L 1819 4666 
L 2450 4666 
L 2450 531 
L 3481 531 
L 3481 0 
L 794 0 
L 794 531 
z
" transform="scale(0.015625)"/>
        <path id="DejaVuSans-33" d="M 2597 2516 
Q 3050 2419 3304 2112 
Q 3559 1806 3559 1356 
Q 3559 666 3084 287 
Q 2609 -91 1734 -91 
Q 1441 -91 1130 -33 
Q 819 25 488 141 
L 488 750 
Q 750 597 1062 519 
Q 1375 441 1716 441 
Q 2309 441 2620 675 
Q 2931 909 2931 1356 
Q 2931 1769 2642 2001 
Q 2353 2234 1838 2234 
L 1294 2234 
L 1294 2753 
L 1863 2753 
Q 2328 2753 2575 2939 
Q 2822 3125 2822 3475 
Q 2822 3834 2567 4026 
Q 2313 4219 1838 4219 
Q 1578 4219 1281 4162 
Q 984 4106 628 3988 
L 628 4550 
Q 988 4650 1302 4700 
Q 1616 4750 1894 4750 
Q 2613 4750 3031 4423 
Q 3450 4097 3450 3541 
Q 3450 3153 3228 2886 
Q 3006 2619 2597 2516 
z
" transform="scale(0.015625)"/>
        <path id="DejaVuSans-35" d="M 691 4666 
L 3169 4666 
L 3169 4134 
L 1269 4134 
L 1269 2991 
Q 1406 3038 1543 3061 
Q 1681 3084 1819 3084 
Q 2600 3084 3056 2656 
Q 3513 2228 3513 1497 
Q 3513 744 3044 326 
Q 2575 -91 1722 -91 
Q 1428 -91 1123 -41 
Q 819 9 494 109 
L 494 744 
Q 775 591 1075 516 
Q 1375 441 1709 441 
Q 2250 441 2565 725 
Q 2881 1009 2881 1497 
Q 2881 1984 2565 2268 
Q 2250 2553 1709 2553 
Q 1456 2553 1204 2497 
Q 953 2441 691 2322 
L 691 4666 
z
" transform="scale(0.015625)"/>
       </defs>
       <use xlink:href="#DejaVuSans-31"/>
       <use xlink:href="#DejaVuSans-33" x="63.623047"/>
       <use xlink:href="#DejaVuSans-35" x="127.246094"/>
      </g>
     </g>
    </g>
    <g id="ytick_2">
     <g id="line2d_4">
      <g>
       <use xlink:href="#mdd60534aed" x="75.28" y="298.644483" style="stroke: #000000; stroke-width: 0.8"/>
      </g>
     </g>
     <g id="text_4">
      <!-- 140 -->
      <g transform="translate(7.2 310.801983) scale(0.32 -0.32)">
       <use xlink:href="#DejaVuSans-31"/>
       <use xlink:href="#DejaVuSans-34" x="63.623047"/>
       <use xlink:href="#DejaVuSans-30" x="127.246094"/>
      </g>
     </g>
    </g>
    <g id="ytick_3">
     <g id="line2d_5">
      <g>
       <use xlink:href="#mdd60534aed" x="75.28" y="81.582414" style="stroke: #000000; stroke-width: 0.8"/>
      </g>
     </g>
     <g id="text_5">
      <!-- 145 -->
      <g transform="translate(7.2 93.739914) scale(0.32 -0.32)">
       <use xlink:href="#DejaVuSans-31"/>
       <use xlink:href="#DejaVuSans-34" x="63.623047"/>
       <use xlink:href="#DejaVuSans-35" x="127.246094"/>
      </g>
     </g>
    </g>
   </g>
   <g id="line2d_6">
    <path d="M 103.929545 396.304692 
L 104.044144 405.564057 
L 104.158742 403.563537 
L 104.502536 411.586396 
L 104.731733 408.289376 
L 104.846331 410.221985 
L 105.075527 407.507484 
L 105.53392 411.070413 
L 105.648518 410.97043 
L 106.106911 334.222314 
L 106.221509 329.502684 
L 106.336107 334.587958 
L 106.565304 331.890746 
L 106.7945 330.894038 
L 106.909098 332.181373 
L 107.023696 327.99508 
L 107.138295 328.227114 
L 107.367491 335.991518 
L 107.482089 335.754225 
L 107.596687 337.0686 
L 107.825884 334.564588 
L 107.940482 337.455282 
L 108.169678 333.252591 
L 108.284276 334.201444 
L 108.398875 338.931993 
L 108.513473 339.05574 
L 108.628071 337.66015 
L 108.742669 329.282498 
L 108.857267 329.567522 
L 108.971865 331.421029 
L 109.086464 328.445962 
L 109.201062 329.05112 
L 109.31566 328.947602 
L 109.430258 331.507122 
L 109.544856 331.552418 
L 109.659455 331.456543 
L 109.774053 330.381966 
L 109.888651 333.062861 
L 110.003249 331.196482 
L 110.117847 331.685524 
L 110.232445 330.388731 
L 110.347044 330.589401 
L 110.920035 334.816729 
L 111.149231 329.678032 
L 111.263829 330.64637 
L 111.378427 328.121575 
L 111.722222 336.595748 
L 111.83682 335.881949 
L 111.951418 337.32102 
L 112.180615 334.522446 
L 112.295213 334.982244 
L 112.524409 331.468516 
L 112.753605 333.300866 
L 112.982802 332.696251 
L 113.211998 328.68678 
L 113.326596 329.192301 
L 113.441195 328.817218 
L 113.555793 331.618625 
L 113.784989 331.616433 
L 113.899587 330.336169 
L 114.128784 332.340529 
L 114.243382 329.818681 
L 114.35798 335.481286 
L 114.472578 334.916625 
L 114.930971 344.784667 
L 115.160167 345.125385 
L 115.274765 345.083819 
L 115.389364 345.585133 
L 115.503962 342.902912 
L 115.733158 348.104147 
L 115.847756 348.715456 
L 115.962355 347.94885 
L 116.076953 349.458731 
L 116.191551 348.265994 
L 116.306149 348.524216 
L 116.420747 348.359691 
L 116.649944 344.850747 
L 116.993738 348.627657 
L 117.222935 349.640898 
L 117.452131 346.632262 
L 117.566729 346.186253 
L 117.795925 349.700812 
L 118.025122 348.688061 
L 118.13972 348.904621 
L 118.254318 348.101118 
L 118.368916 352.504945 
L 118.483515 346.21481 
L 118.598113 346.733272 
L 118.712711 345.309332 
L 118.941907 338.591305 
L 119.056505 339.157363 
L 119.285702 340.838565 
L 119.514898 340.462171 
L 119.629496 338.64769 
L 119.744095 342.153314 
L 119.858693 342.136494 
L 120.202487 343.69291 
L 120.317085 342.824059 
L 120.546282 340.555814 
L 120.66088 334.436046 
L 120.890076 339.18055 
L 121.004675 339.08701 
L 121.233871 340.520716 
L 121.348469 339.192445 
L 121.463067 336.448091 
L 121.577665 337.0126 
L 121.692264 334.103164 
L 121.92146 340.325143 
L 122.036058 338.57692 
L 122.150656 339.134657 
L 122.609049 328.506104 
L 122.723647 331.153143 
L 122.952844 340.280822 
L 123.067442 337.983426 
L 123.296638 344.867478 
L 123.411236 345.638547 
L 123.640433 336.425543 
L 123.755031 335.295638 
L 123.984227 345.048186 
L 124.098825 344.511804 
L 124.213424 341.901002 
L 124.328022 342.939322 
L 124.44262 342.434502 
L 124.671816 331.765354 
L 124.786415 328.125876 
L 125.015611 336.039747 
L 125.244807 338.807466 
L 125.359405 337.339103 
L 125.474004 337.58779 
L 125.7032 328.918879 
L 125.817798 326.839966 
L 126.046995 336.641028 
L 126.161593 335.245717 
L 126.276191 337.631698 
L 126.390789 336.643221 
L 126.505387 337.188112 
L 126.734584 328.270528 
L 126.849182 328.133038 
L 127.078378 336.561487 
L 127.422173 341.526996 
L 127.536771 339.905351 
L 127.651369 334.677079 
L 127.880565 334.349416 
L 128.109762 346.272883 
L 128.22436 346.452255 
L 128.453556 341.908424 
L 128.568155 342.773577 
L 128.797351 332.234768 
L 128.911949 328.849775 
L 129.141145 340.485357 
L 129.370342 343.56899 
L 129.828735 325.677087 
L 129.943333 324.713257 
L 130.172529 330.985662 
L 130.287127 330.176599 
L 130.401725 330.209031 
L 130.74552 212.764758 
L 130.974716 204.65528 
L 131.203913 215.915237 
L 131.318511 209.674791 
L 131.547707 210.208327 
L 132.0061 203.847921 
L 132.235296 210.188757 
L 132.349895 211.615793 
L 132.464493 210.09541 
L 132.579091 211.426845 
L 132.693689 211.173698 
L 132.922885 210.163713 
L 133.037484 207.432653 
L 133.26668 214.686128 
L 133.495876 218.938974 
L 133.610475 215.80675 
L 133.725073 218.767752 
L 133.954269 210.204523 
L 134.183465 213.443235 
L 134.298064 210.311763 
L 134.412662 212.326463 
L 134.641858 207.940887 
L 134.756456 209.654975 
L 134.985653 204.976881 
L 135.100251 203.114169 
L 135.329447 208.303904 
L 135.558644 213.397488 
L 135.673242 210.575257 
L 135.78784 213.057864 
L 135.902438 285.258505 
L 136.017036 221.150934 
L 136.131635 219.46249 
L 136.246233 224.800224 
L 136.475429 210.883999 
L 136.590027 210.303585 
L 136.704625 212.841258 
L 136.933822 206.937529 
L 137.04842 206.891457 
L 137.163018 203.30458 
L 137.277616 212.065553 
L 137.392215 210.551846 
L 137.506813 204.702064 
L 137.736009 170.110677 
L 137.965205 166.371167 
L 138.079804 169.549155 
L 138.194402 169.059117 
L 138.309 172.683718 
L 138.423598 170.758891 
L 138.652795 172.360883 
L 138.767393 168.889551 
L 138.996589 171.915059 
L 139.225785 161.800663 
L 139.56958 170.640723 
L 139.798776 164.731966 
L 140.027973 160.272908 
L 140.142571 160.742024 
L 140.257169 168.446565 
L 140.371767 166.682649 
L 140.486365 169.479263 
L 140.600964 245.844397 
L 140.715562 167.93884 
L 141.059356 172.165143 
L 141.288553 157.900905 
L 141.632347 166.400322 
L 141.746945 164.481854 
L 141.861544 167.15829 
L 141.976142 176.37489 
L 142.09074 176.207257 
L 142.319936 188.216251 
L 142.434535 183.985638 
L 142.549133 168.865499 
L 142.663731 177.435815 
L 142.892927 171.710685 
L 143.007525 176.956729 
L 143.236722 167.50337 
L 143.35132 170.178131 
L 143.465918 162.680108 
L 143.695115 165.927776 
L 143.924311 162.288581 
L 144.153507 166.148881 
L 144.382704 160.226731 
L 144.497302 163.824053 
L 144.6119 161.691752 
L 144.841096 151.165187 
L 144.955695 155.168267 
L 145.070293 152.286246 
L 145.184891 152.664757 
L 145.414087 132.25692 
L 145.643284 144.18827 
L 145.757882 146.478233 
L 145.87248 143.803215 
L 145.987078 146.590993 
L 146.216275 141.740676 
L 146.330873 142.2425 
L 146.445471 138.97989 
L 146.674667 165.877555 
L 146.903864 161.992977 
L 147.13306 189.741701 
L 147.247658 187.069562 
L 147.476855 168.473103 
L 147.591453 171.819185 
L 147.706051 168.769774 
L 147.820649 171.112357 
L 147.935247 170.365479 
L 148.049845 168.107248 
L 148.164444 176.142858 
L 148.279042 170.331444 
L 148.852033 231.151691 
L 149.081229 218.296833 
L 149.195827 217.948257 
L 149.539622 203.402507 
L 149.768818 223.251098 
L 149.883416 226.108626 
L 150.227211 253.940553 
L 150.341809 251.220414 
L 150.456407 253.643322 
L 150.571005 250.020391 
L 150.685604 253.655672 
L 150.800202 244.595835 
L 150.9148 246.140888 
L 151.029398 242.251558 
L 151.143996 248.372065 
L 151.258595 247.696389 
L 151.373193 251.025959 
L 151.602389 268.323456 
L 151.716987 272.531897 
L 151.831585 263.276067 
L 152.060782 271.980228 
L 152.404576 284.32213 
L 152.633773 270.214616 
L 152.748371 268.692627 
L 152.862969 263.733024 
L 153.092165 267.601933 
L 153.206764 258.213286 
L 153.550558 269.565934 
L 153.665156 207.706528 
L 153.779755 211.832043 
L 154.008951 223.103051 
L 154.467344 246.509916 
L 154.69654 242.900031 
L 154.925736 219.220913 
L 155.154933 235.201956 
L 155.269531 234.43991 
L 155.498727 227.983153 
L 155.727924 253.919391 
L 155.95712 243.64215 
L 156.186316 250.541206 
L 156.300915 249.443929 
L 156.530111 242.943101 
L 156.644709 249.394322 
L 156.759307 245.315136 
L 156.988504 250.818247 
L 157.103102 251.142829 
L 157.2177 249.071646 
L 157.446896 257.272398 
L 157.561495 255.860031 
L 157.676093 255.9556 
L 157.790691 260.26375 
L 157.905289 273.477664 
L 158.019887 258.612649 
L 158.134485 259.285958 
L 158.249084 261.080889 
L 158.47828 300.198409 
L 158.592878 296.576374 
L 158.707476 298.262354 
L 158.822075 298.200092 
L 158.936673 306.434908 
L 159.051271 299.361869 
L 159.165869 301.585774 
L 159.280467 301.398746 
L 159.509664 294.49033 
L 159.624262 295.085799 
L 159.73886 294.861925 
L 160.311851 272.991669 
L 160.426449 275.072282 
L 160.655645 281.669034 
L 160.770244 284.241003 
L 160.884842 281.873367 
L 161.343235 296.347729 
L 161.572431 285.256487 
L 161.687029 284.148087 
L 161.801627 281.931336 
L 162.030824 274.773289 
L 162.145422 275.964075 
L 162.26002 278.502758 
L 162.374618 285.055909 
L 162.603815 282.491104 
L 162.833011 267.032194 
L 162.947609 270.596136 
L 163.062207 269.477444 
L 163.176805 270.210462 
L 163.291404 282.34541 
L 163.406002 282.658716 
L 163.5206 281.51785 
L 163.749796 286.954487 
L 163.978993 306.0172 
L 164.093591 308.02317 
L 164.322787 318.124634 
L 164.437385 315.489752 
L 164.551984 315.576137 
L 164.895778 301.043179 
L 165.010376 299.528361 
L 165.239573 309.37751 
L 165.354171 309.036349 
L 165.468769 307.988618 
L 165.583367 312.193735 
L 165.812564 304.767968 
L 165.927162 303.673188 
L 166.04176 304.55746 
L 166.156358 310.779696 
L 166.270956 297.828654 
L 166.500153 301.711715 
L 166.729349 319.659084 
L 167.073144 314.600011 
L 167.187742 315.850084 
L 167.416938 323.175659 
L 167.531536 325.819437 
L 167.646135 323.499557 
L 167.760733 329.019321 
L 167.875331 326.506458 
L 167.989929 326.589674 
L 168.104527 308.499266 
L 168.333724 333.753159 
L 168.448322 334.305701 
L 168.56292 322.837982 
L 168.677518 324.760552 
L 168.792116 337.161715 
L 169.021313 333.653578 
L 169.135911 322.773688 
L 169.250509 328.329193 
L 169.365107 326.738732 
L 169.479705 327.002992 
L 169.594304 329.857117 
L 169.708902 328.252681 
L 169.8235 328.586192 
L 169.938098 321.145608 
L 170.052696 322.04673 
L 170.167295 316.454848 
L 170.396491 320.91409 
L 170.511089 322.604727 
L 170.625687 317.504778 
L 170.740285 324.037291 
L 170.969482 316.985345 
L 171.08408 313.984022 
L 171.198678 314.234998 
L 171.313276 321.336784 
L 171.427875 321.191656 
L 171.542473 322.780459 
L 171.657071 321.807339 
L 171.886267 312.591188 
L 172.115464 320.26488 
L 172.230062 316.242245 
L 172.34466 317.115304 
L 172.459258 319.541289 
L 172.688455 326.215793 
L 173.032249 316.909107 
L 173.146847 317.364496 
L 173.261445 313.977653 
L 173.719838 326.172966 
L 174.063633 318.14172 
L 174.292829 316.761 
L 174.522025 310.337158 
L 174.636624 314.367632 
L 174.980418 308.188005 
L 175.095016 312.467633 
L 175.324213 307.04122 
L 175.438811 309.265943 
L 175.553409 314.632852 
L 175.782605 311.122713 
L 176.011802 315.570625 
L 176.240998 311.395353 
L 176.355596 310.087546 
L 176.584793 316.147491 
L 176.699391 315.274285 
L 176.813989 317.082308 
L 176.928587 317.019669 
L 177.043185 323.436968 
L 177.272382 317.644219 
L 177.38698 316.46133 
L 177.730775 304.87289 
L 177.845373 305.69967 
L 177.959971 308.819829 
L 178.074569 307.776575 
L 178.189167 307.975738 
L 178.418364 298.080236 
L 178.876756 310.517702 
L 178.991355 310.328704 
L 179.220551 306.709208 
L 179.449747 304.538903 
L 179.793542 315.672041 
L 180.022738 313.408585 
L 180.137336 313.128163 
L 180.366533 309.62217 
L 180.481131 308.805996 
L 180.710327 314.216046 
L 180.824925 311.650529 
L 180.939524 313.562863 
L 181.054122 312.463671 
L 181.16872 313.667558 
L 181.397916 286.294368 
L 181.512515 285.437032 
L 181.627113 294.10744 
L 181.741711 291.86779 
L 181.856309 293.011136 
L 181.970907 292.307817 
L 182.200104 294.052711 
L 182.4293 287.119058 
L 182.543898 280.185303 
L 182.773095 287.967041 
L 182.887693 287.660859 
L 183.002291 291.515403 
L 183.346085 284.487561 
L 183.460684 285.00063 
L 183.575282 282.431249 
L 183.804478 291.271507 
L 184.033675 290.873708 
L 184.492067 295.720587 
L 184.606665 295.594557 
L 184.721264 297.666556 
L 184.835862 293.118012 
L 184.95046 297.164822 
L 185.065058 295.327546 
L 185.294255 302.695322 
L 185.408853 298.963639 
L 185.523451 300.847696 
L 185.752647 324.025597 
L 185.981844 328.436132 
L 186.096442 329.430165 
L 186.21104 328.517572 
L 186.440236 342.957668 
L 186.669433 335.788254 
L 186.784031 337.588162 
L 186.898629 341.470398 
L 187.013227 341.433767 
L 187.242424 350.804768 
L 187.700816 356.764954 
L 187.930013 364.830725 
L 188.044611 365.454613 
L 188.503004 373.867485 
L 188.7322 377.683184 
L 189.075995 379.820679 
L 189.190593 379.496836 
L 189.305191 377.452138 
L 189.419789 379.608368 
L 189.648985 377.422855 
L 189.763584 346.621267 
L 189.99278 351.363036 
L 190.107378 347.739946 
L 190.221976 348.661195 
L 190.336575 345.396271 
L 190.451173 345.728909 
L 190.565771 346.475517 
L 190.680369 342.931994 
L 190.794967 343.317247 
L 191.024164 347.931396 
L 191.138762 348.348247 
L 191.25336 347.761308 
L 191.367958 345.897904 
L 191.597155 350.269881 
L 191.826351 328.308283 
L 191.940949 334.949345 
L 192.055547 333.359348 
L 192.284744 335.847555 
L 192.399342 335.478155 
L 192.628538 332.892965 
L 192.743136 333.69762 
L 192.857735 332.088686 
L 193.201529 346.516789 
L 193.430725 345.270258 
L 193.545324 346.66549 
L 193.77452 340.858787 
L 193.889118 340.897598 
L 194.462109 358.098859 
L 194.576707 355.932205 
L 194.805904 350.700309 
L 194.920502 349.891027 
L 195.0351 352.581968 
L 195.149698 351.519824 
L 195.378895 355.92717 
L 195.722689 351.373454 
L 195.951885 345.96777 
L 196.29568 357.193381 
L 196.410278 358.775628 
L 196.524876 358.185991 
L 196.639475 358.583539 
L 196.868671 351.316938 
L 196.983269 351.20842 
L 197.327064 359.919511 
L 197.441662 358.048858 
L 197.55626 358.457813 
L 197.670858 359.451598 
L 197.900055 355.702346 
L 198.014653 343.862563 
L 198.129251 344.256356 
L 198.243849 343.765489 
L 198.587644 339.81551 
L 198.702242 343.052491 
L 198.81684 341.639228 
L 198.931438 346.550185 
L 199.046036 340.957792 
L 199.389831 349.301887 
L 199.504429 348.753888 
L 199.619027 354.146189 
L 199.848224 345.783929 
L 199.962822 344.670003 
L 200.07742 341.627811 
L 200.306616 349.554859 
L 200.421215 349.627439 
L 200.765009 346.788099 
L 200.994205 344.314834 
L 201.108804 345.20918 
L 201.338 352.083634 
L 201.452598 351.956982 
L 201.567196 355.431969 
L 201.681795 353.271527 
L 201.796393 354.065392 
L 202.140187 342.573356 
L 202.254785 348.331972 
L 202.483982 347.06655 
L 202.713178 290.651533 
L 202.827776 294.30763 
L 203.056973 287.814648 
L 203.171571 284.087292 
L 203.400767 293.976613 
L 203.515365 294.125975 
L 203.85916 300.311873 
L 203.973758 298.705437 
L 204.088356 293.980547 
L 204.202955 295.511 
L 204.432151 303.564884 
L 204.661347 300.743719 
L 205.005142 299.079206 
L 205.11974 300.329727 
L 205.234338 296.607409 
L 205.348936 297.721265 
L 205.463535 297.533255 
L 205.578133 300.534577 
L 205.692731 297.405631 
L 206.036525 302.465533 
L 206.265722 300.277058 
L 206.609516 307.461395 
L 206.724115 318.795109 
L 206.838713 318.703718 
L 207.411704 339.70974 
L 207.6409 338.731422 
L 207.755498 340.171869 
L 207.870096 343.342813 
L 208.099293 336.017574 
L 208.213891 339.381127 
L 208.328489 338.54152 
L 208.557685 344.981585 
L 208.786882 343.76724 
L 208.90148 344.182 
L 209.016078 343.500233 
L 209.130676 340.726742 
L 209.245275 334.676404 
L 209.359873 335.348927 
L 209.474471 336.979739 
L 209.703667 347.331491 
L 209.932864 345.860384 
L 210.047462 349.912091 
L 210.276658 344.371603 
L 210.505855 363.620483 
L 210.849649 374.480469 
L 210.964247 367.414865 
L 211.078845 367.554064 
L 211.308042 366.076359 
L 211.42264 362.509967 
L 211.766435 369.69188 
L 211.881033 370.214438 
L 212.110229 373.832052 
L 212.224827 372.3655 
L 212.339425 373.134316 
L 212.454024 373.06573 
L 212.68322 381.177213 
L 213.027015 378.233367 
L 213.256211 383.169202 
L 213.370809 382.991258 
L 213.485407 381.828761 
L 213.600005 383.979909 
L 213.9438 378.840783 
L 214.058398 380.243321 
L 214.287595 386.459005 
L 214.402193 385.591228 
L 214.516791 391.55393 
L 214.745987 390.576082 
L 214.860585 390.981886 
L 214.975184 392.614943 
L 215.20438 389.170398 
L 215.318978 389.142781 
L 215.548175 382.334121 
L 215.777371 387.39735 
L 215.891969 389.107069 
L 216.006567 403.752794 
L 216.235764 403.052262 
L 216.350362 402.425821 
L 216.46496 403.319785 
L 216.579558 399.865575 
L 216.694156 400.616178 
L 216.923353 404.253343 
L 217.152549 399.094051 
L 217.267147 398.828541 
L 217.496344 404.057064 
L 217.610942 400.964348 
L 217.840138 405.454596 
L 217.954736 405.271994 
L 218.069335 405.82572 
L 218.183933 403.831952 
L 218.298531 404.932328 
L 218.413129 403.63267 
L 218.527727 405.673298 
L 218.642325 402.204132 
L 218.871522 406.452303 
L 219.215316 402.999118 
L 219.329915 404.209045 
L 219.444513 403.135462 
L 219.673709 407.738072 
L 219.902905 406.158336 
L 220.017504 414.194387 
L 220.2467 410.16681 
L 220.361298 412.885784 
L 220.475896 407.571662 
L 220.590495 407.500102 
L 220.705093 402.648862 
L 220.934289 405.509773 
L 221.278084 402.631505 
L 221.392682 403.36385 
L 221.50728 403.358641 
L 221.736476 399.37596 
L 221.965673 403.864721 
L 222.080271 402.39963 
L 222.194869 403.999098 
L 222.309467 403.191846 
L 222.424065 406.674206 
L 222.538664 405.500646 
L 222.653262 408.070305 
L 222.76786 404.015538 
L 223.111655 417.180353 
L 223.226253 418.840918 
L 223.340851 416.854634 
L 223.570047 417.841201 
L 223.684645 427.301275 
L 223.913842 415.93965 
L 224.02844 413.704607 
L 224.257636 418.514178 
L 224.372235 419.636294 
L 224.486833 415.804634 
L 224.716029 405.949691 
L 224.830627 404.304015 
L 224.945225 409.298294 
L 225.059824 409.331144 
L 225.174422 409.908032 
L 225.28902 408.730361 
L 225.403618 404.100316 
L 225.518216 405.894307 
L 225.747413 404.061362 
L 225.862011 400.817448 
L 226.205805 406.6163 
L 226.435002 497.927685 
L 226.664198 431.095177 
L 226.893395 499.599172 
L 227.122591 491.131727 
L 227.237189 491.422622 
L 227.351787 490.926659 
L 227.466385 491.954057 
L 227.580984 491.337915 
L 227.81018 487.95798 
L 227.924778 487.680219 
L 228.153975 491.593947 
L 228.268573 490.047883 
L 228.383171 491.076768 
L 228.497769 490.310057 
L 228.841564 408.019653 
L 228.956162 409.613407 
L 229.07076 416.843813 
L 229.185358 449.085618 
L 229.414555 408.541191 
L 229.529153 408.365007 
L 229.643751 408.545159 
L 229.758349 409.152655 
L 229.872947 408.379136 
L 229.987545 406.521094 
L 230.216742 412.703176 
L 230.33134 411.077992 
L 230.445938 415.383023 
L 230.789733 410.331801 
L 230.904331 412.998598 
L 231.018929 411.022121 
L 231.133527 412.74922 
L 231.248125 412.383117 
L 231.362724 411.532012 
L 231.821116 402.59569 
L 232.050313 407.264799 
L 232.164911 409.540011 
L 232.279509 409.077596 
L 232.508705 410.408477 
L 232.623304 409.524518 
L 232.8525 402.232434 
L 232.967098 402.990367 
L 233.081696 400.315513 
L 233.196295 406.595979 
L 233.425491 403.687108 
L 233.540089 403.940838 
L 233.654687 402.904399 
L 233.769285 405.742542 
L 233.998482 401.988519 
L 234.11308 401.756925 
L 234.227678 401.987846 
L 234.342276 404.716146 
L 234.456875 404.219009 
L 234.800669 412.551775 
L 234.915267 412.481491 
L 235.029865 416.324474 
L 235.259062 411.753466 
L 235.37366 415.76018 
L 235.488258 411.166741 
L 235.717455 413.776734 
L 235.832053 414.112241 
L 235.946651 410.555179 
L 236.061249 411.76592 
L 236.290445 408.507581 
L 236.405044 407.140129 
L 236.519642 404.353552 
L 236.748838 409.284262 
L 236.863436 410.860625 
L 236.978035 405.479204 
L 237.321829 416.18529 
L 237.551025 412.879723 
L 237.665624 412.462292 
L 237.780222 410.29018 
L 237.89482 411.103872 
L 238.124016 408.306474 
L 238.238615 408.640305 
L 238.467811 414.216846 
L 238.582409 413.315704 
L 238.697007 410.930797 
L 238.811605 411.60615 
L 238.926204 409.891396 
L 239.1554 419.193915 
L 239.269998 420.053871 
L 239.384596 419.59977 
L 239.499195 428.26345 
L 239.613793 428.073009 
L 239.728391 423.977205 
L 239.842989 425.544011 
L 239.957587 423.922972 
L 240.072185 425.164169 
L 240.186784 424.307403 
L 240.301382 420.959701 
L 240.530578 366.577047 
L 240.645176 368.412826 
L 240.759775 367.813412 
L 240.874373 363.366067 
L 240.988971 364.914413 
L 241.332765 353.452076 
L 241.447364 356.28348 
L 241.561962 354.982393 
L 241.67656 356.690349 
L 241.791158 355.204184 
L 241.905756 351.913555 
L 242.020355 353.429083 
L 242.364149 345.661622 
L 242.478747 346.353747 
L 242.593345 350.327794 
L 242.707944 350.252664 
L 242.93714 354.607552 
L 243.166336 345.93427 
L 243.395533 347.765389 
L 243.510131 354.088099 
L 243.624729 353.841271 
L 243.739327 357.64252 
L 243.853925 355.10916 
L 243.968524 360.403742 
L 244.083122 359.642191 
L 244.312318 355.764474 
L 244.426916 354.925296 
L 244.656113 362.050904 
L 244.770711 363.423291 
L 244.999907 356.954978 
L 245.114505 397.402887 
L 245.4583 394.704001 
L 245.687496 395.641178 
L 245.802095 389.088861 
L 245.916693 389.400361 
L 246.031291 401.118158 
L 246.145889 399.822076 
L 246.260487 400.261088 
L 246.489684 391.660176 
L 246.604282 392.037451 
L 246.833478 399.730181 
L 247.177273 416.232445 
L 247.291871 413.661422 
L 247.406469 419.954681 
L 247.521067 419.580625 
L 247.750264 424.414257 
L 247.864862 418.497728 
L 248.094058 426.762986 
L 248.208656 426.503094 
L 248.552451 411.720334 
L 248.781647 379.471386 
L 248.896245 379.586706 
L 249.010844 378.027829 
L 249.125442 378.892297 
L 249.469236 370.677061 
L 249.583835 366.191075 
L 249.698433 238.035163 
L 249.927629 268.592242 
L 250.042227 268.132864 
L 250.50062 283.433647 
L 250.615218 282.482234 
L 250.729816 284.328225 
L 250.844415 298.893494 
L 250.959013 296.310053 
L 251.188209 306.694192 
L 251.417405 317.716621 
L 251.532004 321.927778 
L 251.7612 331.995428 
L 251.990396 330.882061 
L 252.219593 341.555867 
L 252.334191 349.433968 
L 252.448789 323.655908 
L 252.563387 326.716946 
L 252.792584 364.692047 
L 253.02178 377.408983 
L 253.250976 394.117309 
L 253.365575 392.054179 
L 253.594771 405.827182 
L 253.709369 406.044838 
L 253.938565 407.655519 
L 254.053164 413.314614 
L 254.167762 409.395331 
L 254.28236 409.805229 
L 254.396958 413.591803 
L 254.626155 409.724177 
L 254.740753 406.482852 
L 254.969949 410.551761 
L 255.084547 412.434645 
L 255.199145 412.002175 
L 255.428342 408.736396 
L 255.54294 410.558943 
L 255.772136 390.678703 
L 255.886735 391.946068 
L 256.001333 509.090149 
L 256.115931 340.17404 
L 256.230529 339.053182 
L 256.345127 342.683198 
L 256.459725 341.473287 
L 256.80352 313.987487 
L 257.032716 324.531962 
L 257.147315 325.077096 
L 257.261913 324.318131 
L 257.376511 322.274937 
L 257.491109 322.381347 
L 257.720305 317.273614 
L 257.834904 319.216666 
L 257.949502 297.444264 
L 258.0641 300.456947 
L 258.293296 312.166791 
L 258.407895 312.059296 
L 258.522493 316.879381 
L 258.637091 315.659408 
L 258.751689 318.819466 
L 258.866287 315.877676 
L 259.095484 323.347965 
L 259.32468 321.70148 
L 259.439278 319.982266 
L 259.553876 323.026385 
L 259.783073 318.012783 
L 259.897671 318.828374 
L 260.126867 328.541213 
L 260.241465 329.805871 
L 260.356064 327.833933 
L 260.699858 338.464835 
L 260.814456 330.198571 
L 260.929055 330.502482 
L 261.502045 363.770027 
L 261.616644 444.325242 
L 261.731242 344.622234 
L 261.84584 347.785752 
L 261.960438 345.690686 
L 262.075036 353.094764 
L 262.304233 347.306003 
L 262.533429 321.066077 
L 262.762625 340.285269 
L 262.877224 339.622087 
L 262.991822 340.189321 
L 263.221018 355.028647 
L 263.335616 354.220784 
L 263.450215 354.349132 
L 263.564813 360.021558 
L 263.679411 358.097695 
L 263.794009 353.285036 
L 264.023205 370.364532 
L 264.137804 378.284266 
L 264.252402 362.168845 
L 264.481598 142.537519 
L 264.710795 124.859943 
L 264.825393 121.204004 
L 264.939991 111.447384 
L 265.054589 112.099852 
L 265.169187 109.772496 
L 265.398384 111.693995 
L 265.512982 111.315822 
L 265.62758 107.508097 
L 265.742178 112.027187 
L 265.856776 111.042467 
L 266.085973 116.358138 
L 266.200571 117.512084 
L 266.315169 116.774074 
L 266.544365 113.909767 
L 266.658964 115.351471 
L 266.88816 110.990097 
L 267.002758 109.790255 
L 267.117356 114.427851 
L 267.231955 114.291965 
L 267.346553 115.522491 
L 267.690347 110.589802 
L 267.804945 109.980212 
L 267.919544 110.576892 
L 268.14874 108.225264 
L 268.492535 117.966967 
L 268.950927 184.409351 
L 269.065525 241.226322 
L 269.294722 121.067576 
L 269.40932 118.239789 
L 269.523918 118.543847 
L 269.753115 60.484341 
L 269.867713 86.428609 
L 270.096909 63.73449 
L 270.440704 74.502276 
L 270.555302 74.644017 
L 270.899096 73.047719 
L 271.013695 73.300818 
L 271.128293 228.28565 
L 271.242891 222.969203 
L 271.472087 230.774796 
L 271.815882 234.991899 
L 271.93048 231.904607 
L 272.045078 233.859206 
L 272.159676 232.805445 
L 272.274275 230.564947 
L 272.503471 233.688009 
L 272.618069 243.29593 
L 272.732667 241.291717 
L 272.847265 241.924591 
L 272.961864 243.606081 
L 273.19106 241.759739 
L 273.305658 250.666012 
L 273.649453 245.102269 
L 273.764051 290.925512 
L 273.878649 292.225503 
L 274.107845 291.459157 
L 274.222444 296.368588 
L 274.337042 251.367217 
L 274.566238 328.157256 
L 274.910033 279.689382 
L 275.024631 278.816773 
L 275.139229 276.053401 
L 275.253827 277.736369 
L 275.368425 271.10732 
L 275.597622 272.328033 
L 275.71222 279.656589 
L 275.826818 279.663974 
L 275.941416 353.547574 
L 276.056015 353.856702 
L 276.170613 352.826544 
L 276.285211 354.367369 
L 276.399809 350.098102 
L 276.514407 354.778607 
L 276.629005 354.64293 
L 276.9728 357.970031 
L 277.087398 354.975842 
L 277.201996 356.179713 
L 277.431193 352.915333 
L 277.660389 355.334352 
L 277.774987 355.389708 
L 277.889585 354.7903 
L 278.004184 358.460199 
L 278.23338 355.247151 
L 278.347978 356.414213 
L 278.577175 347.630581 
L 278.691773 349.603791 
L 278.806371 349.989129 
L 278.920969 352.710479 
L 279.035567 409.022347 
L 279.264764 407.400322 
L 279.379362 407.767897 
L 279.49396 406.785444 
L 279.608558 409.686294 
L 279.837755 407.365101 
L 279.952353 409.689787 
L 280.181549 407.381567 
L 280.296147 404.671324 
L 280.410745 407.795171 
L 280.525344 405.041041 
L 280.75454 409.61589 
L 280.869138 410.096616 
L 281.098335 409.1663 
L 281.212933 410.466081 
L 281.327531 407.717925 
L 281.442129 409.321727 
L 281.556727 405.512289 
L 281.671325 407.651873 
L 281.785924 406.172554 
L 282.01512 410.065895 
L 282.129718 410.625513 
L 282.358915 407.540054 
L 282.473513 409.542114 
L 282.588111 407.891943 
L 282.817307 414.863416 
L 282.931905 414.237176 
L 283.161102 418.336126 
L 283.2757 419.527031 
L 283.390298 416.763322 
L 283.504896 417.830098 
L 283.619495 415.958705 
L 283.848691 419.550097 
L 283.963289 417.799034 
L 284.192485 421.268952 
L 284.421682 417.951561 
L 284.53628 417.427799 
L 284.650878 415.932981 
L 284.765476 418.235285 
L 284.880075 416.97994 
L 284.994673 419.568091 
L 285.109271 417.178113 
L 285.223869 417.515607 
L 285.338467 421.017123 
L 285.453065 417.686454 
L 285.567664 417.705618 
L 285.682262 416.94532 
L 285.79686 418.784518 
L 285.911458 417.107505 
L 286.140655 419.052881 
L 286.369851 417.504141 
L 286.599047 418.436301 
L 286.713645 419.472335 
L 287.05744 413.974244 
L 287.172038 413.976847 
L 287.286636 416.907386 
L 287.515833 412.547478 
L 287.630431 413.011906 
L 287.745029 411.293162 
L 287.859627 413.060052 
L 287.974225 412.408309 
L 288.203422 415.972188 
L 288.31802 412.652049 
L 288.432618 413.197297 
L 288.547216 412.033217 
L 288.661815 413.97602 
L 288.776413 412.547015 
L 288.891011 414.171253 
L 289.120207 406.426114 
L 289.234805 409.495344 
L 289.349404 409.196217 
L 289.5786 402.649271 
L 289.693198 396.367555 
L 290.036993 406.917825 
L 290.151591 406.468194 
L 290.266189 407.917905 
L 290.724582 399.941332 
L 290.83918 399.265428 
L 291.068376 407.031894 
L 291.182975 407.803415 
L 291.297573 403.942306 
L 291.412171 410.37087 
L 291.526769 409.997988 
L 291.870564 404.993223 
L 291.985162 412.966713 
L 292.214358 412.604527 
L 292.328956 413.468187 
L 292.672751 406.666449 
L 292.787349 408.303778 
L 292.901947 404.921491 
L 293.016545 411.038912 
L 293.245742 405.078236 
L 293.36034 407.691737 
L 293.589536 415.192844 
L 293.704135 406.412325 
L 293.933331 409.564684 
L 294.162527 418.439629 
L 294.391724 420.104618 
L 294.506322 418.247239 
L 294.62092 418.929508 
L 294.735518 417.904982 
L 294.964715 414.837117 
L 295.193911 425.680355 
L 295.308509 425.739801 
L 295.423107 424.366658 
L 295.537705 428.697365 
L 295.766902 425.160878 
L 295.8815 421.959453 
L 295.996098 423.133426 
L 296.110696 416.058316 
L 296.339893 426.937632 
L 296.454491 425.45696 
L 296.798285 427.653669 
L 297.027482 420.41664 
L 297.256678 426.688662 
L 297.485875 422.951354 
L 297.600473 411.689457 
L 297.829669 418.517017 
L 297.944267 419.073115 
L 298.058865 418.384675 
L 298.288062 436.439029 
L 298.746455 456.942635 
L 298.861053 456.603542 
L 299.090249 452.950246 
L 299.319445 464.02053 
L 299.434044 461.118502 
L 299.548642 461.866349 
L 299.66324 461.530923 
L 299.777838 455.074311 
L 299.892436 455.88334 
L 300.007035 458.185875 
L 300.121633 455.183564 
L 300.236231 461.982634 
L 300.465427 460.094874 
L 300.580025 460.964147 
L 300.809222 462.989889 
L 300.92382 462.404241 
L 301.038418 462.910418 
L 301.153016 461.669199 
L 301.267615 462.783133 
L 301.382213 462.338707 
L 301.496811 463.287116 
L 301.611409 462.633506 
L 301.726007 461.122979 
L 301.955204 454.696411 
L 302.069802 456.561791 
L 302.1844 454.23934 
L 302.528195 464.540895 
L 302.642793 463.475918 
L 302.757391 464.846464 
L 302.986587 461.706344 
L 303.101185 461.815382 
L 303.215784 463.04762 
L 303.788775 493.584581 
L 303.903373 493.825372 
L 304.132569 490.611092 
L 304.247167 489.082377 
L 304.476364 493.424261 
L 304.70556 489.572535 
L 304.820158 491.589312 
L 304.934756 490.193524 
L 305.049355 490.630376 
L 305.278551 487.31528 
L 305.393149 485.729439 
L 305.736944 475.826375 
L 305.96614 478.521199 
L 306.195336 474.849677 
L 306.309935 474.904289 
L 306.539131 468.313668 
L 306.653729 471.743192 
L 306.882925 466.51501 
L 306.997524 463.797188 
L 307.341318 448.540517 
L 307.455916 449.413296 
L 307.570515 446.32512 
L 307.914309 452.134475 
L 308.372702 438.897668 
L 308.4873 443.487813 
L 308.716496 442.878253 
L 308.831095 442.740598 
L 308.945693 444.939726 
L 309.060291 444.567928 
L 309.404085 448.372654 
L 309.518684 448.299486 
L 309.74788 452.560162 
L 309.977076 455.8365 
L 310.091675 455.638411 
L 310.206273 456.209349 
L 310.320871 455.438824 
L 310.550067 457.655702 
L 310.664665 457.330675 
L 310.779264 456.023487 
L 310.893862 452.976131 
L 311.123058 455.096431 
L 311.352255 446.528321 
L 311.581451 450.022491 
L 311.810647 440.57647 
L 311.925245 442.359708 
L 312.039844 442.001674 
L 312.498236 435.342506 
L 312.612835 435.09005 
L 312.727433 436.701375 
L 312.842031 435.624369 
L 313.071227 438.88475 
L 313.185825 435.571523 
L 313.415022 436.075755 
L 313.52962 438.912316 
L 313.644218 437.158012 
L 313.758816 437.953789 
L 313.988013 442.3759 
L 314.102611 442.168548 
L 314.331807 443.959654 
L 314.446405 439.897908 
L 314.7902 445.442642 
L 314.904798 448.684249 
L 315.019396 447.865978 
L 315.248593 454.673705 
L 315.477789 449.967682 
L 315.592387 450.111363 
L 315.706985 450.913224 
L 315.821584 454.639762 
L 316.05078 453.865649 
L 316.165378 448.618266 
L 316.279976 450.189398 
L 316.394575 448.416177 
L 316.509173 449.348233 
L 316.738369 448.267563 
L 316.852967 441.834836 
L 316.967565 441.978339 
L 317.082164 439.466288 
L 317.196762 439.617492 
L 317.31136 439.175589 
L 317.540556 430.478642 
L 317.655155 430.623804 
L 317.769753 434.353559 
L 317.998949 430.193023 
L 318.113547 430.806703 
L 318.342744 434.57519 
L 318.457342 433.704696 
L 318.57194 436.801739 
L 318.801136 432.988888 
L 319.030333 438.629611 
L 319.144931 438.012208 
L 319.259529 438.256539 
L 319.374127 442.108755 
L 319.488725 439.36146 
L 319.603324 440.757253 
L 319.717922 440.626888 
L 319.83252 444.036714 
L 320.061716 441.99754 
L 320.176315 445.554343 
L 320.290913 445.145027 
L 320.405511 446.257022 
L 320.749305 441.599697 
L 320.863904 443.993809 
L 320.978502 443.049307 
L 321.207698 439.344615 
L 321.322296 439.267582 
L 321.436895 442.868567 
L 321.551493 442.134621 
L 321.666091 443.376014 
L 321.895287 441.048671 
L 322.009885 443.338864 
L 322.239082 437.52145 
L 322.35368 437.382386 
L 322.468278 438.516689 
L 322.582876 438.497571 
L 322.697475 438.817361 
L 322.926671 436.24483 
L 323.155867 438.360221 
L 323.270465 436.37416 
L 323.385064 440.488142 
L 323.499662 439.794463 
L 323.61426 442.517179 
L 323.728858 441.881117 
L 323.843456 442.92394 
L 323.958055 445.162145 
L 324.187251 443.423507 
L 324.301849 444.853533 
L 324.760242 438.498093 
L 324.87484 438.222111 
L 325.333233 445.446406 
L 325.447831 442.656394 
L 325.562429 442.728349 
L 325.791625 437.483641 
L 325.906224 440.012753 
L 326.020822 439.018802 
L 326.250018 444.33963 
L 326.364616 443.089518 
L 326.479215 440.042571 
L 326.593813 440.765234 
L 326.823009 433.528647 
L 326.937607 433.694245 
L 327.052205 430.770507 
L 327.281402 433.394039 
L 327.510598 427.704203 
L 327.625196 428.450679 
L 327.854393 434.197463 
L 327.968991 437.571583 
L 328.198187 436.027161 
L 328.427384 441.642134 
L 328.541982 441.498311 
L 328.771178 444.035609 
L 328.885776 439.355526 
L 329.000375 439.94483 
L 329.114973 439.156382 
L 329.229571 441.592125 
L 329.458767 438.153293 
L 329.573365 442.475783 
L 329.802562 440.657172 
L 330.031758 432.042407 
L 330.260955 445.061557 
L 330.375553 442.061041 
L 330.490151 442.822515 
L 330.604749 445.81182 
L 330.948544 420.019347 
L 331.063142 423.060713 
L 331.406936 441.811968 
L 331.521535 441.559278 
L 331.636133 438.86188 
L 331.750731 439.709906 
L 331.865329 439.032153 
L 331.979927 437.526195 
L 332.552918 448.834868 
L 332.667516 447.529579 
L 332.896713 431.374987 
L 333.011311 426.218764 
L 333.125909 426.614783 
L 333.240507 425.50657 
L 333.584302 430.83251 
L 333.6989 435.11234 
L 333.813498 428.931166 
L 333.928096 437.855536 
L 334.042695 434.64053 
L 334.157293 434.60492 
L 334.386489 443.670183 
L 334.615685 442.367525 
L 334.844882 444.066025 
L 335.074078 432.895964 
L 335.188676 432.984269 
L 335.647069 445.026484 
L 335.761667 443.502056 
L 335.876265 444.191376 
L 336.105462 437.583807 
L 336.334658 445.927595 
L 336.449256 449.533339 
L 337.022247 439.35348 
L 337.136845 431.838076 
L 337.251444 433.594413 
L 337.366042 438.95436 
L 337.48064 435.606933 
L 337.709836 439.241257 
L 337.824435 437.715446 
L 337.939033 442.349076 
L 338.282827 425.638128 
L 338.512024 387.337195 
L 338.74122 380.483918 
L 338.855818 382.649079 
L 339.085015 380.09708 
L 339.199613 381.774792 
L 339.314211 379.984485 
L 339.428809 384.186488 
L 339.543407 382.718234 
L 339.772604 393.051584 
L 340.0018 394.736675 
L 340.116398 393.964288 
L 340.345595 389.198158 
L 340.460193 389.985703 
L 340.574791 392.401196 
L 340.803987 389.940505 
L 341.147782 384.275196 
L 341.26238 386.142786 
L 341.376978 383.277023 
L 341.491576 389.454261 
L 341.720773 388.032721 
L 341.949969 393.401767 
L 342.179165 386.579624 
L 342.408362 389.533761 
L 342.52296 444.086656 
L 342.637558 433.764775 
L 342.752156 435.351472 
L 342.866755 434.102898 
L 343.095951 438.174387 
L 343.210549 430.228397 
L 343.325147 430.440791 
L 343.439745 430.992718 
L 343.554344 436.877978 
L 343.668942 434.661917 
L 343.898138 436.68208 
L 344.012736 434.206301 
L 344.127335 434.648463 
L 344.356531 424.470622 
L 344.471129 425.221488 
L 344.700325 431.117691 
L 344.814924 432.574972 
L 344.929522 431.300189 
L 345.04412 431.781431 
L 345.158718 433.175301 
L 345.387915 426.997157 
L 345.502513 427.201119 
L 345.731709 437.914994 
L 345.846307 435.310359 
L 345.960905 441.655787 
L 346.075504 441.716344 
L 346.190102 441.933452 
L 346.419298 433.741803 
L 346.533896 429.767125 
L 346.763093 433.77495 
L 346.877691 429.917294 
L 347.221485 433.350272 
L 347.450682 424.551103 
L 347.56528 424.255348 
L 347.679878 424.766532 
L 348.023673 432.256831 
L 348.138271 436.052535 
L 348.482065 425.494681 
L 348.711262 431.8451 
L 348.82586 430.469471 
L 349.055056 440.661313 
L 349.398851 433.053252 
L 349.857244 450.402208 
L 349.971842 443.86156 
L 350.08644 443.859259 
L 350.201038 446.848476 
L 350.544833 426.311156 
L 350.659431 428.844963 
L 350.774029 439.864854 
L 351.003225 325.915331 
L 351.232422 323.509336 
L 351.34702 327.75761 
L 351.461618 326.109965 
L 351.576216 326.37487 
L 351.805413 333.487266 
L 352.034609 328.456313 
L 352.263805 330.96846 
L 352.493002 324.130481 
L 352.6076 325.108973 
L 352.836796 326.325565 
L 352.951395 324.059298 
L 353.065993 328.23278 
L 353.180591 324.627857 
L 353.295189 378.858325 
L 353.409787 294.441266 
L 353.524385 296.749434 
L 353.753582 292.005997 
L 353.86818 284.079465 
L 354.097376 293.658838 
L 354.211975 297.257469 
L 354.555769 356.768017 
L 354.670367 311.693041 
L 354.899564 323.796917 
L 355.014162 319.660991 
L 355.12876 322.019171 
L 355.357956 315.759576 
L 355.472555 314.737577 
L 355.701751 309.453656 
L 355.816349 310.848558 
L 356.045545 320.575833 
L 356.160144 319.612907 
L 356.274742 320.36909 
L 356.38934 318.654779 
L 356.503938 319.012753 
L 356.618536 301.66666 
L 356.847733 302.368173 
L 357.076929 313.064021 
L 357.306125 308.490341 
L 357.420724 308.405976 
L 357.535322 310.593771 
L 357.64992 301.588566 
L 357.764518 302.770434 
L 358.108313 358.526794 
L 358.222911 362.604844 
L 358.337509 360.032674 
L 358.452107 353.080289 
L 358.681304 297.141302 
L 358.795902 290.265322 
L 359.025098 300.59428 
L 359.139696 299.473649 
L 359.254295 301.865866 
L 359.368893 298.71871 
L 359.483491 303.329471 
L 359.598089 287.758204 
L 359.712687 287.950152 
L 359.827285 282.781082 
L 360.056482 296.438691 
L 360.285678 317.402357 
L 360.400276 320.518136 
L 360.514875 305.008336 
L 360.629473 305.147991 
L 360.973267 291.35197 
L 361.087865 295.16776 
L 361.317062 290.752871 
L 361.43166 293.717826 
L 361.546258 313.053723 
L 361.660856 304.191629 
L 361.890053 270.513024 
L 362.004651 267.725563 
L 362.119249 272.781504 
L 362.348445 256.518172 
L 362.577642 271.033733 
L 362.69224 267.242105 
L 362.806838 270.303976 
L 363.150633 242.675799 
L 363.265231 244.826615 
L 363.379829 237.629121 
L 363.494427 244.481814 
L 363.609025 235.599711 
L 363.723624 235.8522 
L 363.95282 239.675106 
L 364.067418 235.941107 
L 364.296615 239.457261 
L 364.411213 238.224862 
L 364.525811 239.150196 
L 364.640409 263.981346 
L 364.869605 248.200108 
L 365.098802 256.157255 
L 365.2134 247.919447 
L 365.327998 250.081987 
L 365.442596 247.74129 
L 365.671793 240.812036 
L 365.900989 242.985894 
L 366.015587 249.810492 
L 366.130185 248.995107 
L 366.47398 250.573106 
L 366.588578 251.786879 
L 366.817775 257.496942 
L 366.932373 260.404874 
L 367.276167 256.085159 
L 367.390765 253.002491 
L 367.849158 273.033894 
L 367.963756 267.656006 
L 368.078355 275.527528 
L 368.192953 271.734543 
L 368.765944 295.222718 
L 368.880542 299.480732 
L 369.109738 288.170112 
L 369.224336 291.575587 
L 369.453533 301.201286 
L 369.568131 301.526655 
L 369.797327 295.37652 
L 369.911925 294.221036 
L 370.026524 300.275647 
L 370.25572 288.614402 
L 370.370318 291.289153 
L 370.599515 277.781608 
L 370.828711 262.464549 
L 370.943309 259.686425 
L 371.401702 267.579047 
L 371.5163 262.295863 
L 371.630898 266.8588 
L 371.745496 257.286 
L 372.089291 262.499323 
L 372.318487 258.853599 
L 372.662282 270.27543 
L 372.891478 289.803696 
L 373.235273 259.500569 
L 373.464469 267.954999 
L 373.579067 266.114744 
L 373.808264 260.302103 
L 374.03746 271.977814 
L 374.152058 268.587042 
L 374.266656 261.853458 
L 374.381255 262.027028 
L 374.610451 264.988577 
L 374.725049 263.839711 
L 374.839647 264.701696 
L 374.954245 263.758771 
L 375.068844 265.754688 
L 375.183442 263.745486 
L 375.29804 264.825705 
L 375.412638 264.549969 
L 375.527236 267.402511 
L 375.985629 263.002486 
L 376.100227 267.29332 
L 376.329424 254.903038 
L 376.673218 260.327646 
L 376.787816 257.178445 
L 377.017013 260.836617 
L 377.131611 259.471208 
L 377.246209 259.546888 
L 377.475405 254.848527 
L 377.590004 265.453707 
L 377.8192 257.900749 
L 377.933798 257.642626 
L 378.048396 256.572528 
L 378.162995 258.174976 
L 378.277593 255.368218 
L 378.506789 248.253748 
L 378.621387 263.945313 
L 378.850584 247.841878 
L 378.965182 253.840739 
L 379.308976 244.212696 
L 379.538173 241.625158 
L 380.111164 254.603138 
L 380.225762 254.475562 
L 380.684155 276.894044 
L 380.798753 290.713517 
L 381.027949 374.324521 
L 381.142547 376.446409 
L 381.257145 376.050808 
L 381.371744 350.02612 
L 381.486342 351.495176 
L 381.830136 367.638485 
L 382.059333 379.615975 
L 382.288529 388.519566 
L 382.517725 406.402975 
L 382.632324 408.296865 
L 382.86152 414.811114 
L 382.976118 414.951743 
L 383.090716 416.4291 
L 383.205315 414.31192 
L 383.319913 414.355448 
L 383.434511 411.037861 
L 383.549109 413.235343 
L 383.663707 411.854115 
L 383.892904 415.880291 
L 384.007502 416.029617 
L 384.1221 414.699946 
L 384.236698 417.496583 
L 384.465895 415.910498 
L 384.580493 412.893164 
L 384.809689 432.3074 
L 384.924287 430.031274 
L 385.038885 430.283152 
L 385.153484 428.535293 
L 385.268082 430.380155 
L 385.38268 430.213565 
L 385.497278 430.489517 
L 385.611876 436.086191 
L 385.955671 433.712581 
L 386.070269 436.4078 
L 386.184867 432.459429 
L 386.299465 433.730887 
L 386.414064 432.624181 
L 386.528662 434.61087 
L 386.64326 431.516218 
L 386.872456 441.458589 
L 386.987055 439.762788 
L 387.101653 441.877763 
L 387.216251 441.764375 
L 387.330849 438.43742 
L 387.560045 442.646777 
L 387.789242 432.705411 
L 388.018438 437.635186 
L 388.247635 434.342218 
L 388.476831 442.207077 
L 388.935224 454.340078 
L 389.049822 450.100182 
L 389.279018 456.829671 
L 389.393616 458.133612 
L 389.508215 461.732725 
L 389.852009 445.028608 
L 389.966607 448.235181 
L 390.081205 446.273101 
L 390.425 449.27107 
L 390.539598 444.947856 
L 390.654196 435.385306 
L 390.883393 439.371056 
L 390.997991 437.513519 
L 391.112589 438.328709 
L 391.227187 438.038894 
L 391.341785 431.288853 
L 391.456384 432.345239 
L 391.800178 419.704251 
L 392.029375 425.617951 
L 392.143973 424.037115 
L 392.258571 424.473235 
L 392.487767 423.646059 
L 392.602365 421.416922 
L 392.716964 423.443994 
L 392.831562 420.670621 
L 393.060758 422.454703 
L 393.175356 420.541834 
L 393.404553 425.029892 
L 393.519151 426.630455 
L 393.633749 417.997753 
L 393.748347 420.986529 
L 393.862945 418.417225 
L 394.092142 426.221161 
L 394.321338 426.457623 
L 394.665133 430.29636 
L 395.008927 427.766743 
L 395.238124 432.828256 
L 395.46732 434.917979 
L 395.581918 433.568067 
L 395.696516 430.79304 
L 395.811115 446.094559 
L 396.040311 427.068007 
L 396.154909 428.31833 
L 396.269507 435.835112 
L 396.498704 430.514758 
L 396.613302 430.999618 
L 396.7279 434.858781 
L 396.842498 432.618077 
L 396.957096 433.667309 
L 397.071695 432.025405 
L 397.186293 438.115582 
L 397.415489 427.604685 
L 397.530087 433.511221 
L 397.644685 431.04474 
L 397.759284 433.314705 
L 397.873882 429.40041 
L 397.98848 429.659803 
L 398.103078 429.21973 
L 398.217676 430.20194 
L 398.332275 429.093807 
L 398.561471 445.579312 
L 398.676069 445.129356 
L 399.134462 426.782717 
L 399.24906 428.942989 
L 399.363658 426.819599 
L 399.478256 427.01322 
L 399.592855 423.887311 
L 399.822051 429.888915 
L 399.936649 435.534334 
L 400.051247 435.379776 
L 400.395042 431.738139 
L 400.50964 436.25646 
L 400.738836 431.467369 
L 401.197229 437.322904 
L 401.426425 444.658494 
L 401.541024 445.095834 
L 401.77022 448.622743 
L 401.884818 445.074025 
L 401.999416 448.965156 
L 402.114015 447.919294 
L 402.228613 448.088335 
L 402.457809 459.778574 
L 402.572407 456.753366 
L 402.801604 464.560197 
L 402.916202 464.0034 
L 403.0308 461.815375 
L 403.259996 452.575887 
L 403.489193 455.629899 
L 403.718389 451.657222 
L 403.947585 451.211046 
L 404.176782 446.253179 
L 404.29138 449.868571 
L 404.405978 449.816412 
L 404.520576 451.643224 
L 404.635175 450.019061 
L 404.749773 446.149039 
L 404.864371 449.556775 
L 405.093567 447.030099 
L 405.322764 452.78211 
L 405.437362 452.360716 
L 405.55196 453.051138 
L 405.781156 443.155431 
L 406.010353 451.508709 
L 406.354147 446.389232 
L 406.583344 456.108152 
L 406.697942 456.98133 
L 406.81254 460.904912 
L 407.156335 455.020942 
L 407.385531 445.203588 
L 407.500129 446.307124 
L 407.614727 444.741671 
L 407.729325 445.908209 
L 407.843924 441.32154 
L 407.958522 441.344455 
L 408.07312 438.006226 
L 408.187718 445.945707 
L 408.302316 444.837251 
L 408.531513 440.795193 
L 408.646111 440.231654 
L 408.760709 442.381604 
L 408.989905 439.549118 
L 409.104504 444.12889 
L 409.3337 437.703758 
L 409.448298 434.308231 
L 409.562896 435.742193 
L 409.677495 433.322253 
L 409.792093 433.686387 
L 409.906691 435.756902 
L 410.021289 433.656287 
L 410.135887 437.377027 
L 410.250485 437.276513 
L 410.365084 435.335191 
L 410.479682 435.82907 
L 410.59428 431.653367 
L 410.823476 436.135806 
L 410.938075 433.387239 
L 411.167271 436.950362 
L 411.396467 427.336974 
L 411.511065 434.625756 
L 411.625664 434.095074 
L 411.85486 437.066992 
L 412.084056 441.554201 
L 412.198655 441.839917 
L 412.313253 440.191344 
L 412.657047 444.122114 
L 412.771645 435.972216 
L 412.886244 439.107529 
L 413.000842 438.559009 
L 413.230038 434.271681 
L 413.344636 433.268709 
L 413.459235 433.94328 
L 413.573833 437.246522 
L 413.688431 434.645034 
L 413.803029 434.970391 
L 413.917627 432.919639 
L 414.032225 434.106038 
L 414.146824 430.51902 
L 414.37602 436.483175 
L 414.605216 440.037967 
L 414.949011 434.340265 
L 415.178207 435.014145 
L 415.292805 439.636819 
L 415.6366 431.657857 
L 415.751198 439.671334 
L 415.980395 433.681683 
L 416.094993 433.858789 
L 416.209591 433.609175 
L 416.324189 436.192132 
L 416.438787 432.744204 
L 416.553385 441.491082 
L 416.667984 440.180145 
L 416.782582 442.738208 
L 416.89718 437.402676 
L 417.011778 439.333943 
L 417.240975 446.149775 
L 417.470171 443.473829 
L 417.584769 438.79638 
L 417.813965 440.023562 
L 417.928564 437.197599 
L 418.043162 439.687777 
L 418.272358 428.79222 
L 418.501555 430.499525 
L 418.616153 428.950687 
L 418.845349 434.146114 
L 418.959947 442.491488 
L 419.189144 436.92275 
L 419.303742 434.662342 
L 419.876733 446.484973 
L 420.105929 437.447829 
L 420.220527 439.36278 
L 420.335125 446.894278 
L 420.564322 436.51957 
L 420.67892 434.081449 
L 420.793518 434.388025 
L 421.022715 429.656906 
L 421.137313 432.132651 
L 421.366509 437.466512 
L 421.481107 437.615348 
L 421.595705 434.603188 
L 421.710304 436.209149 
L 421.824902 435.118711 
L 421.9395 436.608342 
L 422.054098 441.274153 
L 422.168696 440.577086 
L 422.283295 441.271293 
L 422.397893 443.678651 
L 422.512491 442.526632 
L 422.970884 427.573749 
L 423.085482 430.618227 
L 423.20008 428.192881 
L 423.314678 430.655957 
L 423.429276 430.223865 
L 423.543875 426.147092 
L 423.658473 428.017037 
L 423.773071 424.324866 
L 423.887669 427.952177 
L 424.002267 438.329972 
L 424.116865 433.247496 
L 424.346062 436.675878 
L 424.46066 445.491307 
L 424.575258 437.947968 
L 424.689856 443.56932 
L 424.804455 439.953503 
L 424.919053 440.075633 
L 425.033651 440.499078 
L 425.262847 445.907336 
L 425.377445 443.495722 
L 425.492044 443.889855 
L 425.606642 445.332238 
L 425.950436 431.105614 
L 426.065035 430.602853 
L 426.179633 431.783666 
L 426.523427 438.919193 
L 426.752624 431.420283 
L 427.096418 444.192603 
L 427.211016 445.969069 
L 427.325615 445.046267 
L 427.440213 445.24848 
L 427.669409 448.387821 
L 427.898605 440.313858 
L 428.013204 442.398438 
L 428.127802 446.894348 
L 428.356998 442.548941 
L 428.586195 443.933592 
L 428.700793 449.237341 
L 429.044587 445.841071 
L 429.273784 446.251918 
L 429.388382 448.785464 
L 429.50298 445.551767 
L 429.732176 446.322937 
L 429.846775 457.522242 
L 429.961373 443.606555 
L 430.075971 445.653433 
L 430.190569 451.209276 
L 430.305167 447.947297 
L 430.419765 447.873576 
L 430.534364 447.983747 
L 430.648962 445.85234 
L 430.76356 447.835442 
L 430.992756 442.022677 
L 431.107355 439.556143 
L 431.221953 442.742759 
L 431.336551 441.913245 
L 431.451149 440.225757 
L 431.565747 446.011676 
L 431.909542 441.177764 
L 432.02414 438.461691 
L 432.138738 429.878946 
L 432.367935 445.113463 
L 432.482533 453.080077 
L 432.940925 438.361997 
L 433.055524 428.157186 
L 433.28472 439.356462 
L 433.399318 438.023819 
L 433.513916 439.157285 
L 433.628515 438.993517 
L 433.743113 434.97801 
L 433.857711 446.006539 
L 434.201505 430.145377 
L 434.316104 445.002073 
L 434.5453 434.15752 
L 434.659898 430.779262 
L 434.774496 432.686516 
L 434.889095 455.679477 
L 435.118291 422.739115 
L 435.232889 424.654715 
L 435.462085 445.957162 
L 435.576684 443.885075 
L 435.691282 447.380756 
L 435.80588 446.424065 
L 435.920478 444.264961 
L 436.149675 426.245266 
L 436.378871 435.316565 
L 436.608067 439.999022 
L 436.951862 452.713251 
L 437.295656 433.403943 
L 437.524853 443.932096 
L 437.639451 442.092777 
L 437.754049 437.922309 
L 437.868647 441.219545 
L 437.983245 436.336041 
L 438.212442 424.779332 
L 438.32704 421.616662 
L 438.556236 432.578092 
L 438.670835 431.008679 
L 438.785433 437.851875 
L 438.900031 436.926672 
L 439.014629 439.512204 
L 439.129227 425.500481 
L 439.243825 425.477539 
L 439.358424 423.034211 
L 439.473022 432.677239 
L 439.816816 395.623663 
L 439.931415 399.892232 
L 440.275209 367.477164 
L 440.504405 258.273657 
L 440.619004 262.178626 
L 440.733602 261.951709 
L 440.962798 267.93365 
L 441.077396 266.76851 
L 441.191995 267.935428 
L 441.306593 264.926652 
L 441.421191 264.860512 
L 441.535789 271.392485 
L 441.650387 268.999016 
L 441.879584 248.66253 
L 441.994182 250.006908 
L 442.337976 231.934488 
L 442.567173 235.172794 
L 442.681771 228.54862 
L 442.796369 231.419935 
L 442.910967 227.777315 
L 443.025565 205.124369 
L 443.140164 225.368591 
L 443.254762 217.65032 
L 443.483958 219.324247 
L 443.598556 216.218233 
L 444.056949 230.328478 
L 444.171547 227.515478 
L 444.400744 235.9842 
L 444.973735 254.170777 
L 445.088333 255.337536 
L 445.202931 260.560309 
L 445.432127 246.440624 
L 445.661324 250.649429 
L 445.775922 248.085306 
L 445.89052 249.177087 
L 446.005118 243.201927 
L 446.119716 243.086942 
L 446.234315 245.802084 
L 446.348913 238.409268 
L 446.692707 241.620683 
L 446.807305 246.136852 
L 446.921904 245.943001 
L 447.1511 257.217194 
L 447.265698 254.258878 
L 447.494895 207.443948 
L 447.838689 213.931119 
L 447.953287 212.782815 
L 448.526278 202.693965 
L 448.640876 204.938834 
L 448.870073 216.485805 
L 448.984671 218.085819 
L 449.099269 205.462267 
L 449.213867 216.927939 
L 449.557662 208.928982 
L 449.67226 208.247663 
L 449.786858 220.163918 
L 450.016055 210.551223 
L 450.245251 198.743511 
L 450.359849 204.919581 
L 450.474447 194.918912 
L 450.589045 194.799811 
L 450.703644 195.886441 
L 450.818242 195.774143 
L 450.93284 192.223763 
L 451.047438 197.79879 
L 451.162036 192.352629 
L 451.391233 200.974289 
L 451.620429 190.047974 
L 451.735027 187.263869 
L 451.849625 188.865778 
L 452.078822 178.952995 
L 452.19342 180.165589 
L 452.422616 175.451079 
L 452.651813 170.226944 
L 452.995607 190.384414 
L 453.224804 169.245779 
L 453.339402 172.345143 
L 453.454 172.332145 
L 453.568598 173.263026 
L 453.683196 176.883542 
L 453.912393 191.860403 
L 454.141589 193.561291 
L 454.256187 184.662362 
L 454.370785 186.710815 
L 454.485384 184.679845 
L 454.71458 160.607141 
L 454.829178 162.852322 
L 454.943776 167.54316 
L 455.058375 181.166989 
L 455.172973 161.946814 
L 455.402169 165.659504 
L 455.516767 166.510542 
L 455.631365 176.382437 
L 455.745964 176.441862 
L 456.089758 204.293644 
L 456.433553 196.867226 
L 456.548151 196.264369 
L 456.777347 186.638862 
L 456.891945 186.766168 
L 457.121142 190.874899 
L 457.350338 139.146386 
L 457.579535 142.330189 
L 457.694133 135.56531 
L 457.808731 136.924177 
L 458.152525 153.450729 
L 458.381722 161.352161 
L 458.49632 159.597691 
L 458.610918 163.828844 
L 458.840115 155.471246 
L 458.954713 153.785605 
L 459.069311 161.133574 
L 459.183909 155.521466 
L 459.298507 160.78167 
L 459.413105 146.750361 
L 459.527704 151.459155 
L 459.7569 139.352266 
L 459.986096 129.689739 
L 460.100695 139.141984 
L 460.215293 134.493203 
L 460.329891 141.102211 
L 460.559087 131.184161 
L 460.673685 133.486545 
L 460.788284 129.631494 
L 461.01748 133.615918 
L 461.132078 128.617661 
L 461.361275 139.788949 
L 461.590471 127.624041 
L 461.705069 126.367927 
L 461.819667 131.398005 
L 461.934265 123.572406 
L 462.048864 128.265568 
L 462.163462 122.229985 
L 462.27806 122.473091 
L 462.507256 129.448516 
L 462.736453 126.494131 
L 462.851051 116.640898 
L 463.080247 119.677992 
L 463.194845 108.451358 
L 463.309444 112.351834 
L 463.424042 110.683947 
L 463.53864 113.778882 
L 463.653238 109.556071 
L 463.767836 118.732478 
L 463.997033 106.57029 
L 464.226229 109.951105 
L 464.340827 120.541311 
L 464.570024 112.930216 
L 464.913818 126.977205 
L 465.028416 120.636879 
L 465.257613 99.91858 
L 465.486809 112.008188 
L 465.830604 101.1115 
L 465.945202 107.005969 
L 466.0598 104.266986 
L 466.174398 113.479173 
L 466.403595 104.007976 
L 466.518193 119.014131 
L 466.747389 103.486982 
L 466.861987 108.531405 
L 466.976585 107.884888 
L 467.778773 141.103845 
L 467.893371 137.455413 
L 468.122567 140.324111 
L 468.237165 139.506888 
L 468.351764 142.691948 
L 468.58096 154.534414 
L 468.810156 146.84729 
L 469.153951 128.09709 
L 469.383147 134.870161 
L 469.726942 120.496715 
L 469.84154 117.578874 
L 469.956138 108.242557 
L 470.185335 108.476646 
L 470.299933 111.621477 
L 470.414531 104.878708 
L 470.529129 109.325525 
L 470.643727 108.18503 
L 470.758325 108.276971 
L 470.872924 107.534459 
L 471.10212 98.259979 
L 471.216718 103.052863 
L 471.331316 94.799074 
L 471.560513 114.755727 
L 471.675111 108.571604 
L 471.789709 110.896295 
L 471.904307 109.761874 
L 472.018905 122.29364 
L 472.248102 110.194489 
L 472.3627 129.095182 
L 472.477298 121.690393 
L 472.591896 124.198578 
L 472.706495 132.348787 
L 472.821093 129.028595 
L 472.935691 131.202197 
L 473.164887 151.623859 
L 473.279485 142.555943 
L 473.394084 146.410328 
L 473.62328 173.38553 
L 473.737878 177.576305 
L 473.967075 171.154124 
L 474.081673 177.809267 
L 474.310869 171.770103 
L 474.540065 178.075569 
L 474.769262 173.047683 
L 474.88386 175.018198 
L 474.998458 172.451464 
L 475.113056 181.749653 
L 475.342253 167.422273 
L 475.456851 186.517658 
L 475.800645 167.352687 
L 476.029842 152.546206 
L 476.14444 153.739487 
L 476.259038 153.727587 
L 476.373636 156.806134 
L 476.602833 150.733709 
L 476.717431 156.213962 
L 476.832029 154.93895 
L 476.946627 155.864013 
L 477.061225 155.31075 
L 477.290422 161.925775 
L 477.40502 158.531855 
L 477.519618 159.696199 
L 477.634216 159.460852 
L 477.748815 139.959497 
L 477.978011 145.223256 
L 478.207207 137.843634 
L 478.321805 140.061289 
L 478.436404 137.778319 
L 478.6656 151.403344 
L 479.009395 158.850538 
L 479.123993 167.103548 
L 479.238591 162.187806 
L 479.467787 166.379737 
L 479.811582 160.314565 
L 479.92618 159.217207 
L 480.040778 159.566057 
L 480.269975 166.967717 
L 480.499171 161.778082 
L 480.613769 164.714608 
L 480.842965 175.331229 
L 480.957564 179.437702 
L 481.072162 178.795674 
L 481.301358 186.968377 
L 481.530555 178.70889 
L 481.645153 181.606228 
L 481.759751 180.827843 
L 482.218144 186.807844 
L 482.332742 182.89749 
L 482.44734 183.161414 
L 482.561938 181.755631 
L 482.791135 188.319057 
L 482.905733 187.153702 
L 483.020331 188.448634 
L 483.134929 187.294332 
L 483.249527 181.52559 
L 483.478724 189.226492 
L 483.593322 185.818943 
L 483.937116 204.408186 
L 484.051715 205.97555 
L 484.395509 214.778364 
L 484.510107 217.059011 
L 484.624705 215.782649 
L 484.739304 220.124289 
L 484.853902 218.098942 
L 484.9685 218.498179 
L 485.083098 217.567619 
L 485.312295 207.457237 
L 485.541491 206.672141 
L 485.770687 202.239512 
L 485.885285 205.659518 
L 485.999884 205.408818 
L 486.572875 225.641835 
L 486.687473 223.917142 
L 486.916669 228.575203 
L 487.604258 200.172798 
L 487.718856 204.139475 
L 487.833455 199.90509 
L 487.948053 202.312051 
L 488.177249 210.701767 
L 488.291847 214.629836 
L 488.406445 210.543545 
L 488.75024 226.145774 
L 488.864838 225.968816 
L 488.979436 226.254844 
L 489.094035 227.450421 
L 489.323231 216.462603 
L 489.437829 216.695854 
L 489.667025 203.831147 
L 489.896222 207.377324 
L 490.01082 205.897072 
L 490.240016 213.502567 
L 490.469213 205.308019 
L 490.813007 210.90759 
L 490.927605 218.945843 
L 491.042204 218.008107 
L 491.156802 225.697125 
L 491.500596 218.690135 
L 491.615195 224.328989 
L 491.729793 223.756862 
L 491.844391 215.867634 
L 491.958989 216.283172 
L 492.073587 221.371158 
L 492.188185 221.462137 
L 492.302784 221.353764 
L 492.646578 214.874803 
L 492.761176 217.818256 
L 492.875775 217.402563 
L 492.990373 219.853748 
L 493.104971 217.801719 
L 493.334167 228.03986 
L 493.448765 228.130656 
L 493.563364 227.943097 
L 493.907158 216.870055 
L 494.136355 208.93355 
L 494.250953 210.393568 
L 494.480149 215.931179 
L 494.594747 217.183009 
L 494.709345 215.915972 
L 494.823944 212.94884 
L 495.05314 217.45347 
L 495.282336 224.437792 
L 495.396935 229.573766 
L 495.626131 217.931111 
L 495.740729 212.800341 
L 495.855327 213.042877 
L 495.969925 207.556793 
L 496.199122 214.926637 
L 496.31372 206.863248 
L 496.428318 209.307774 
L 496.542916 209.353724 
L 496.657515 214.121744 
L 496.886711 237.749297 
L 497.001309 255.069997 
L 497.230505 220.443853 
L 497.345104 219.969893 
L 497.459702 214.402954 
L 497.5743 217.337975 
L 497.688898 213.676833 
L 497.803496 216.086848 
L 498.147291 205.464792 
L 498.376487 212.978474 
L 498.491085 216.193948 
L 498.605684 214.036566 
L 498.720282 215.291041 
L 498.83488 218.054814 
L 498.949478 214.798765 
L 499.064076 214.826769 
L 499.178675 211.832638 
L 499.866264 233.823606 
L 499.980862 233.887546 
L 500.09546 227.440196 
L 500.324656 230.430946 
L 500.553853 223.188955 
L 500.668451 223.151918 
L 500.783049 222.981149 
L 501.012245 217.852797 
L 501.126844 218.779947 
L 501.470638 227.029095 
L 501.585236 231.43997 
L 501.699835 231.510587 
L 501.814433 230.910982 
L 501.929031 234.121616 
L 502.158227 232.093969 
L 502.387424 226.683028 
L 502.502022 225.478842 
L 502.61662 219.425031 
L 502.731218 220.001412 
L 502.960415 219.306469 
L 503.075013 220.973536 
L 503.189611 220.245944 
L 503.304209 220.503545 
L 503.533405 225.781767 
L 503.762602 224.189529 
L 503.8772 224.017273 
L 504.106396 231.68741 
L 504.220995 228.237615 
L 504.335593 230.105297 
L 504.679387 223.413755 
L 504.793985 225.395984 
L 504.908584 222.225336 
L 505.13778 223.626738 
L 505.252378 210.833917 
L 505.825369 239.928526 
L 505.939967 243.64326 
L 506.169164 241.071127 
L 506.512958 229.607496 
L 506.627556 230.095361 
L 506.742155 224.31184 
L 507.200547 231.194761 
L 507.429744 243.359196 
L 507.544342 245.680602 
L 507.773538 241.312891 
L 507.888136 239.607383 
L 508.117333 224.538542 
L 508.231931 224.98828 
L 508.346529 224.537838 
L 508.461127 225.631019 
L 508.575725 234.296888 
L 508.690324 233.352001 
L 508.804922 223.484669 
L 509.148716 236.98046 
L 509.377913 226.22769 
L 509.607109 232.838725 
L 509.721707 232.529328 
L 509.950904 235.022355 
L 510.065502 232.484386 
L 510.1801 235.300759 
L 510.409296 232.018268 
L 510.523895 225.24834 
L 510.753091 236.799557 
L 510.867689 237.516328 
L 510.982287 239.399057 
L 511.211484 248.9494 
L 511.44068 249.153409 
L 511.669876 251.116421 
L 511.784475 256.187336 
L 512.013671 248.778753 
L 512.242867 233.738949 
L 512.357465 238.178897 
L 512.472064 232.045309 
L 512.70126 240.568913 
L 512.815858 242.5805 
L 513.159653 257.448762 
L 513.388849 245.592757 
L 513.503447 246.296476 
L 513.618045 239.261137 
L 513.847242 254.955624 
L 513.96184 238.163431 
L 514.076438 240.204809 
L 514.420233 256.238812 
L 514.649429 251.608224 
L 514.764027 255.049937 
L 514.878625 251.748079 
L 514.993224 253.416494 
L 515.107822 248.546309 
L 515.22242 250.291429 
L 515.337018 247.02304 
L 515.566215 257.467718 
L 515.795411 268.934595 
L 516.024607 261.111903 
L 516.139205 262.214754 
L 516.368402 257.473983 
L 516.712196 264.841333 
L 516.826795 272.249787 
L 516.941393 269.340717 
L 517.055991 269.994391 
L 517.170589 263.805597 
L 517.285187 266.173258 
L 517.514384 264.571034 
L 517.628982 264.692527 
L 517.858178 271.140564 
L 518.087375 267.765148 
L 518.201973 265.948828 
L 518.660365 281.120865 
L 518.774964 278.484679 
L 518.889562 280.69364 
L 519.00416 279.515386 
L 519.118758 282.67521 
L 519.233356 278.570613 
L 519.347955 280.342942 
L 519.462553 277.754354 
L 519.691749 279.542267 
L 519.920945 288.33148 
L 520.150142 280.558027 
L 520.26474 279.405391 
L 520.379338 280.82849 
L 520.493936 286.237373 
L 520.608535 280.552712 
L 520.837731 282.224034 
L 520.952329 280.961989 
L 521.066927 282.174075 
L 521.181525 280.214792 
L 521.296124 287.749121 
L 521.410722 287.609362 
L 521.639918 276.524587 
L 521.754516 274.879332 
L 521.983713 286.743785 
L 522.212909 278.181018 
L 522.556704 289.604993 
L 522.671302 288.663138 
L 522.7859 289.726409 
L 523.015096 287.581312 
L 523.129695 294.054412 
L 523.244293 293.301239 
L 523.358891 294.798678 
L 523.473489 292.42832 
L 523.588087 292.695053 
L 523.702685 291.245404 
L 523.817284 287.817037 
L 524.04648 297.446801 
L 524.161078 297.122636 
L 524.275676 297.809833 
L 524.390275 301.33166 
L 524.734069 294.049877 
L 524.848667 283.35417 
L 525.077864 296.07771 
L 525.192462 296.246625 
L 525.421658 301.298482 
L 525.880051 293.611875 
L 526.109247 301.561997 
L 526.338444 297.159271 
L 526.453042 297.237093 
L 526.682238 293.11143 
L 526.796836 294.095479 
L 526.911435 293.046762 
L 527.026033 298.173123 
L 527.140631 297.031262 
L 527.255229 301.466666 
L 527.369827 299.897264 
L 527.484425 296.394753 
L 527.713622 302.429946 
L 527.942818 292.722532 
L 528.057416 296.17924 
L 528.172015 296.002581 
L 528.286613 299.380412 
L 528.401211 299.252867 
L 528.515809 298.593092 
L 528.630407 299.780043 
L 528.745005 294.390503 
L 528.859604 296.263155 
L 528.974202 293.341651 
L 529.0888 293.644335 
L 529.317996 299.663397 
L 529.432595 298.053658 
L 529.547193 300.359287 
L 529.661791 298.351706 
L 529.776389 298.671759 
L 530.005585 294.719294 
L 530.234782 297.85684 
L 530.463978 296.123461 
L 530.693175 299.784522 
L 530.807773 298.822952 
L 530.922371 296.278194 
L 531.036969 296.660718 
L 531.151567 319.775005 
L 531.266165 318.548148 
L 531.495362 298.638671 
L 531.724558 300.959917 
L 531.839156 298.323327 
L 531.953755 298.28307 
L 532.182951 293.987319 
L 532.412147 302.174255 
L 532.526745 295.761031 
L 532.641344 296.685231 
L 532.87054 305.146435 
L 533.099736 286.774795 
L 533.214335 286.837401 
L 533.328933 291.381361 
L 533.443531 291.054363 
L 533.672727 295.259927 
L 533.787325 295.223739 
L 534.13112 285.308369 
L 534.245718 291.95833 
L 534.360316 290.800168 
L 534.474915 297.292798 
L 534.704111 289.991502 
L 534.818709 299.125001 
L 535.047905 294.797863 
L 535.277102 292.256038 
L 535.506298 299.99759 
L 535.620896 298.01627 
L 535.850093 303.89075 
L 536.079289 294.78225 
L 536.193887 304.861113 
L 536.308485 301.672174 
L 536.423084 309.369468 
L 536.537682 308.827281 
L 536.65228 299.229269 
L 536.881476 312.971342 
L 536.996075 312.0582 
L 537.110673 313.455143 
L 537.225271 307.722466 
L 537.339869 308.891611 
L 537.454467 312.134715 
L 537.683664 309.682385 
L 537.798262 309.581567 
L 537.91286 316.130361 
L 538.027458 313.783807 
L 538.256655 302.345171 
L 538.600449 308.538476 
L 538.715047 309.034987 
L 538.829645 308.646499 
L 538.944244 311.251695 
L 539.058842 318.081723 
L 539.288038 306.397492 
L 539.402636 305.78089 
L 539.631833 300.330141 
L 539.746431 300.535343 
L 539.861029 308.701874 
L 540.090225 303.22649 
L 540.204824 305.613591 
L 540.43402 299.463769 
L 540.548618 308.614918 
L 540.663216 302.739615 
L 540.777815 304.79098 
L 540.892413 303.906944 
L 541.007011 301.367956 
L 541.121609 304.085822 
L 541.350805 301.533348 
L 541.465404 301.772289 
L 541.580002 301.732012 
L 541.6946 301.447793 
L 541.923796 307.753075 
L 542.038395 304.965372 
L 542.152993 306.121562 
L 542.611385 297.133862 
L 542.725984 300.867618 
L 542.95518 299.579893 
L 543.184376 310.000123 
L 543.298975 309.03743 
L 543.413573 304.526489 
L 543.642769 308.429803 
L 543.757367 307.211132 
L 543.871965 308.745679 
L 543.986564 305.586282 
L 544.101162 307.793446 
L 544.330358 302.298053 
L 544.444956 301.475748 
L 544.559555 294.992094 
L 544.788751 300.731026 
L 545.017947 294.753167 
L 545.132545 296.477952 
L 545.247144 306.920562 
L 545.47634 296.302453 
L 545.934733 310.179077 
L 546.049331 309.199087 
L 546.163929 310.317906 
L 546.278527 319.878695 
L 546.393125 305.726502 
L 546.622322 307.551517 
L 546.73692 307.032325 
L 546.851518 309.977382 
L 547.080715 288.109273 
L 547.424509 272.89088 
L 547.653705 267.81836 
L 547.882902 280.685083 
L 547.9975 280.314529 
L 548.112098 273.471498 
L 548.226696 275.141995 
L 548.341295 273.668386 
L 548.455893 264.867679 
L 548.685089 271.949273 
L 548.799687 271.71428 
L 549.25808 284.167316 
L 549.372678 291.240244 
L 549.601875 273.570583 
L 549.716473 271.790332 
L 549.945669 283.486262 
L 550.174865 290.13149 
L 550.289464 284.359554 
L 550.404062 287.478487 
L 550.633258 276.078718 
L 550.747856 283.382117 
L 550.862455 278.316012 
L 551.091651 295.508451 
L 551.206249 278.690426 
L 551.320847 280.774029 
L 551.435445 278.420008 
L 551.550044 283.953249 
L 551.664642 265.565712 
L 551.77924 265.679515 
L 552.008436 276.021953 
L 552.123035 275.386051 
L 552.237633 275.439563 
L 552.352231 273.014636 
L 552.466829 273.101367 
L 552.810624 265.110725 
L 552.925222 275.637118 
L 553.03982 275.534714 
L 553.154418 282.773662 
L 553.269016 276.421963 
L 553.383615 278.309634 
L 553.498213 282.638051 
L 553.727409 257.891059 
L 553.842007 255.968153 
L 554.071204 263.157267 
L 554.185802 264.44763 
L 554.3004 267.271158 
L 554.529596 263.144625 
L 554.758793 256.463112 
L 554.873391 258.191321 
L 555.102587 269.029717 
L 555.446382 214.052218 
L 555.56098 210.459898 
L 555.675578 200.610683 
L 555.904775 211.6755 
L 556.019373 209.034969 
L 556.477765 190.509105 
L 556.706962 188.151553 
L 556.82156 188.811414 
L 556.936158 186.223384 
L 557.050756 187.939478 
L 557.165355 187.648759 
L 557.509149 193.786573 
L 557.623747 199.276664 
L 557.852944 188.677017 
L 558.08214 193.263479 
L 558.196738 195.798583 
L 558.425935 193.212719 
L 558.540533 191.147652 
L 558.655131 194.390816 
L 558.769729 191.778572 
L 558.884327 186.253632 
L 559.113524 189.096406 
L 559.228122 188.092305 
L 559.34272 188.703212 
L 559.571916 196.379365 
L 559.686515 196.454443 
L 559.801113 200.136225 
L 559.915711 185.386544 
L 560.144907 193.887776 
L 560.259505 195.00318 
L 560.488702 203.916945 
L 560.6033 204.204505 
L 560.717898 203.310916 
L 561.290889 224.311363 
L 561.520085 211.591951 
L 561.634684 210.145828 
L 561.749282 215.215192 
L 561.978478 201.827444 
L 562.093076 202.469045 
L 562.207675 202.470922 
L 562.436871 213.287617 
L 562.551469 209.949159 
L 562.780665 222.489632 
L 563.009862 207.829587 
L 563.353656 223.610739 
L 563.468255 218.530277 
L 563.582853 220.433998 
L 563.812049 220.130329 
L 563.926647 212.665257 
L 564.155844 214.540639 
L 564.270442 212.668039 
L 564.499638 222.626247 
L 564.614236 217.889648 
L 564.728835 221.936672 
L 564.843433 218.972986 
L 564.958031 220.112131 
L 565.072629 217.926596 
L 565.301825 225.636553 
L 565.416424 223.90284 
L 565.531022 227.700158 
L 565.64562 227.346959 
L 566.104013 209.963376 
L 566.218611 294.183542 
L 566.333209 249.429689 
L 566.677004 257.426904 
L 566.9062 265.390743 
L 567.020798 251.912541 
L 567.249995 260.031984 
L 567.593789 272.151374 
L 567.708387 271.342059 
L 567.937584 267.956221 
L 568.052182 268.868753 
L 568.281378 256.797983 
L 568.395976 256.767797 
L 568.510575 258.000149 
L 568.625173 257.91974 
L 568.854369 260.39017 
L 569.083565 255.196274 
L 569.198164 248.366784 
L 569.656556 264.440889 
L 569.771155 263.003996 
L 569.885753 259.71357 
L 570.000351 264.608022 
L 570.114949 256.235531 
L 570.229547 256.392587 
L 570.573342 266.553092 
L 570.68794 262.549431 
L 570.802538 266.770748 
L 571.146333 254.312461 
L 571.260931 255.245453 
L 571.375529 251.241563 
L 571.490127 257.235185 
L 571.604725 252.540652 
L 571.719324 264.816969 
L 571.94852 247.994992 
L 572.177716 270.420824 
L 572.406913 257.006386 
L 572.521511 259.634663 
L 572.750707 274.127326 
L 572.865305 264.656746 
L 573.094502 276.753016 
L 573.2091 274.734541 
L 573.438296 256.405081 
L 573.667493 271.455942 
L 573.782091 270.22001 
L 574.011287 274.153597 
L 574.125885 271.967839 
L 574.46968 249.209656 
L 574.584278 236.442877 
L 574.698876 246.804404 
L 574.928073 200.112934 
L 575.042671 205.474649 
L 575.157269 202.86556 
L 575.386465 192.740692 
L 575.501064 193.99742 
L 575.615662 193.315879 
L 575.73026 182.051046 
L 575.844858 181.875827 
L 575.959456 175.641418 
L 576.074055 177.137668 
L 576.188653 173.779524 
L 576.303251 173.72147 
L 576.417849 167.135695 
L 576.532447 169.110931 
L 576.647045 174.463453 
L 576.761644 172.372792 
L 576.99084 177.225293 
L 577.105438 174.240846 
L 577.220036 190.247662 
L 577.449233 174.757128 
L 577.563831 176.224404 
L 577.678429 177.058909 
L 577.793027 176.72593 
L 577.907625 175.986474 
L 578.022224 177.448522 
L 578.136822 185.028869 
L 578.366018 178.045687 
L 578.595215 184.162897 
L 578.709813 180.267949 
L 578.824411 181.388608 
L 579.168205 195.031451 
L 579.397402 188.520269 
L 579.626598 196.864041 
L 579.741196 194.37657 
L 579.855795 199.074842 
L 579.970393 198.780707 
L 580.199589 206.989427 
L 580.314187 200.744922 
L 580.428785 206.71235 
L 580.543384 206.67192 
L 580.77258 198.320384 
L 581.230973 208.621871 
L 581.574767 199.60223 
L 581.689365 193.522867 
L 581.803964 181.247234 
L 582.03316 184.364771 
L 582.147758 180.044542 
L 582.262356 186.238319 
L 582.606151 181.547955 
L 582.720749 183.184055 
L 582.835347 189.722069 
L 583.064544 210.43305 
L 583.29374 193.909929 
L 583.522936 190.317754 
L 583.752133 180.807013 
L 584.095927 188.715539 
L 584.325124 188.255929 
L 584.439722 188.225945 
L 584.55432 191.252258 
L 584.783516 186.259519 
L 584.898115 188.989505 
L 585.127311 222.49151 
L 585.241909 217.459442 
L 585.356507 220.405568 
L 585.471105 214.204161 
L 585.585704 224.216462 
L 585.700302 224.176591 
L 585.929498 214.377959 
L 586.044096 219.600584 
L 586.158695 218.602426 
L 586.273293 222.80956 
L 586.502489 206.681566 
L 586.617087 207.643954 
L 586.846284 203.851583 
L 587.07548 221.115344 
L 587.190078 221.455058 
L 587.419275 214.804805 
L 587.533873 217.212466 
L 587.648471 206.945687 
L 587.763069 211.66932 
L 587.877667 211.500159 
L 587.992265 210.026891 
L 588.221462 221.531952 
L 588.450658 210.10047 
L 588.565256 208.71822 
L 588.679855 209.247151 
L 589.023649 191.772615 
L 589.138247 192.734888 
L 589.252845 186.743315 
L 589.367444 187.191366 
L 589.482042 185.396322 
L 589.59664 199.301882 
L 589.825836 195.481816 
L 590.055033 201.195431 
L 590.169631 208.951728 
L 590.284229 207.824731 
L 590.398827 213.122961 
L 590.513425 212.1382 
L 590.628024 212.33776 
L 590.742622 211.194987 
L 590.85722 203.375772 
L 590.971818 207.106597 
L 591.201015 197.293091 
L 591.430211 198.984475 
L 591.659407 217.294033 
L 591.888604 201.968647 
L 592.003202 200.793106 
L 592.232398 223.542487 
L 592.346996 222.340489 
L 592.461595 221.787677 
L 592.576193 222.440687 
L 592.690791 222.069179 
L 592.805389 219.475903 
L 593.149184 230.826961 
L 593.263782 230.348387 
L 593.37838 229.927452 
L 593.722175 233.006723 
L 593.836773 234.392168 
L 593.951371 224.74575 
L 594.180567 232.236281 
L 594.409764 227.417839 
L 594.524362 230.733569 
L 594.753558 230.039087 
L 594.868156 228.895072 
L 594.982755 225.875925 
L 595.097353 234.174133 
L 595.211951 233.41248 
L 595.326549 227.585288 
L 595.441147 227.864057 
L 595.555745 600.865112 
L 595.784942 569.930665 
L 596.128736 565.981447 
L 596.357933 568.072215 
L 596.472531 569.0988 
L 596.587129 568.604692 
L 597.16012 560.999362 
L 597.274718 562.577019 
L 597.503915 565.931635 
L 597.618513 565.433761 
L 597.733111 567.124393 
L 597.847709 565.758166 
L 597.962307 566.407071 
L 598.076905 562.9408 
L 598.535298 566.492374 
L 598.649896 565.715912 
L 598.764495 567.121214 
L 599.566682 535.100592 
L 599.68128 535.80684 
L 599.795878 531.270177 
L 599.910476 532.987847 
L 600.139673 526.174649 
L 600.483467 541.423956 
L 600.598065 540.215043 
L 600.712664 539.594572 
L 600.827262 537.484837 
L 601.056458 541.076418 
L 601.285655 537.969564 
L 601.629449 544.603467 
L 601.744047 544.594456 
L 602.087842 539.374396 
L 602.20244 538.261807 
L 602.546235 540.794291 
L 602.660833 543.017498 
L 602.890029 542.213215 
L 603.119225 539.497494 
L 603.233824 541.205795 
L 603.348422 541.096254 
L 603.46302 541.409744 
L 603.692216 543.808703 
L 603.806815 550.508512 
L 603.921413 548.196089 
L 604.150609 511.012855 
L 604.379805 505.934205 
L 604.609002 507.359663 
L 604.7236 507.263702 
L 604.838198 504.944455 
L 605.067395 507.931313 
L 605.181993 494.073355 
L 605.296591 493.817615 
L 605.411189 493.993367 
L 605.525787 496.891426 
L 605.640385 493.143027 
L 605.98418 499.598628 
L 606.098778 500.513171 
L 606.327975 497.60981 
L 606.442573 497.263433 
L 606.671769 500.674629 
L 606.786367 495.484897 
L 606.900965 495.654268 
L 607.015564 494.258235 
L 607.130162 494.87297 
L 607.24476 496.663847 
L 607.359358 493.364926 
L 607.473956 494.936478 
L 607.588555 494.860378 
L 607.703153 492.818164 
L 607.932349 497.946253 
L 608.046947 495.488291 
L 608.161545 495.4845 
L 608.390742 493.154047 
L 608.50534 493.289331 
L 608.619938 495.434137 
L 608.734536 495.065398 
L 608.849135 495.232829 
L 609.078331 496.205498 
L 609.536724 492.135589 
L 609.651322 492.651957 
L 609.76592 494.919411 
L 609.880518 494.489119 
L 609.995116 494.668822 
L 610.109715 495.059717 
L 610.224313 493.37231 
L 610.338911 493.969148 
L 610.453509 492.440585 
L 610.797304 499.046215 
L 611.0265 494.478843 
L 611.141098 496.637333 
L 611.255696 495.795544 
L 611.370295 492.375638 
L 611.484893 492.533217 
L 611.714089 497.650748 
L 611.828687 497.621188 
L 611.943285 497.939217 
L 612.28708 503.929689 
L 612.401678 497.755487 
L 612.630875 498.761901 
L 612.974669 497.725154 
L 613.089267 497.931229 
L 613.203865 495.110396 
L 613.318464 495.194439 
L 613.54766 500.723158 
L 613.662258 500.194855 
L 613.776856 500.885177 
L 613.891455 506.107674 
L 614.006053 504.878997 
L 614.120651 506.668839 
L 614.349847 514.317621 
L 614.579044 510.83834 
L 614.693642 511.320673 
L 614.80824 515.21615 
L 615.037436 509.945331 
L 615.152035 510.095265 
L 615.266633 509.903799 
L 615.381231 510.275451 
L 615.610427 507.594834 
L 615.839624 509.598504 
L 616.06882 505.745302 
L 616.183418 505.251936 
L 616.298016 506.529894 
L 616.412615 506.209113 
L 616.756409 502.539527 
L 617.100204 509.766802 
L 617.214802 510.614804 
L 617.3294 509.548116 
L 617.443998 510.755718 
L 617.558596 508.777385 
L 617.673195 504.650109 
L 617.787793 504.535403 
L 617.902391 504.869502 
L 618.016989 507.074735 
L 618.131587 505.951599 
L 618.360784 506.733029 
L 618.58998 506.197834 
L 618.819176 514.316995 
L 618.933775 510.208885 
L 619.048373 511.89524 
L 619.162971 511.561151 
L 619.392167 509.733971 
L 619.506765 510.142166 
L 620.079756 518.147108 
L 620.308953 514.522052 
L 620.423551 515.148544 
L 620.538149 514.529437 
L 620.652747 514.777501 
L 620.767345 516.505095 
L 620.881944 515.899038 
L 620.996542 516.660747 
L 621.225738 522.161552 
L 621.340336 520.535659 
L 621.454935 520.737174 
L 621.569533 520.465021 
L 621.798729 520.884789 
L 622.027925 522.903477 
L 622.142524 521.409142 
L 622.257122 527.997118 
L 622.486318 525.651565 
L 622.830113 520.969141 
L 622.944711 521.62377 
L 623.059309 514.831107 
L 623.403104 515.046194 
L 623.517702 518.212039 
L 623.746898 513.185867 
L 623.861496 513.124093 
L 624.090693 514.677802 
L 624.205291 514.308999 
L 624.319889 514.563256 
L 624.663684 509.639509 
L 624.778282 510.448822 
L 624.89288 508.722733 
L 625.122076 509.327104 
L 625.351273 513.403752 
L 625.580469 516.381243 
L 625.809665 506.063716 
L 625.924264 500.962931 
L 626.038862 502.176994 
L 626.15346 505.150092 
L 626.268058 511.819978 
L 626.382656 511.615084 
L 626.726451 508.934972 
L 626.841049 512.675003 
L 626.955647 505.459633 
L 627.184844 513.051095 
L 627.41404 516.743144 
L 627.528638 510.497613 
L 627.643236 514.335493 
L 627.872433 509.229654 
L 627.987031 504.538957 
L 628.101629 505.756695 
L 628.330825 514.167779 
L 628.560022 517.011128 
L 628.903816 512.216444 
L 629.018415 509.807365 
L 629.133013 510.508968 
L 629.362209 515.893469 
L 629.476807 514.207975 
L 629.820602 517.785091 
L 629.9352 516.096834 
L 630.049798 506.148871 
L 630.278995 510.928632 
L 630.508191 513.816884 
L 630.622789 513.49329 
L 630.737387 517.966095 
L 630.851985 518.082225 
L 630.966584 517.662979 
L 631.081182 509.139124 
L 631.310378 519.723811 
L 631.424976 520.754728 
L 631.539575 523.823868 
L 631.654173 518.501941 
L 631.883369 522.482933 
L 631.997967 516.674887 
L 632.341762 527.978459 
L 632.800155 516.164283 
L 632.914753 517.096308 
L 633.143949 503.336924 
L 633.487744 522.308978 
L 633.602342 514.298133 
L 633.71694 518.565464 
L 633.831538 503.919021 
L 634.060735 267.195306 
L 634.175333 250.301917 
L 634.404529 251.26785 
L 634.633725 257.45884 
L 634.97752 244.9498 
L 635.092118 245.615749 
L 635.321315 238.502785 
L 635.550511 237.815409 
L 635.779707 242.809636 
L 636.123502 230.80039 
L 636.2381 229.53744 
L 636.352698 230.97286 
L 636.581895 240.485017 
L 636.696493 237.294521 
L 636.811091 238.945851 
L 636.925689 234.679074 
L 637.040287 235.150311 
L 637.269484 226.780389 
L 637.384082 226.55448 
L 637.613278 234.338452 
L 638.071671 214.051747 
L 638.300867 189.387076 
L 638.415465 190.748346 
L 638.530064 193.139028 
L 638.644662 198.020478 
L 638.988456 187.505484 
L 639.103055 189.625709 
L 639.217653 193.881719 
L 639.332251 183.085442 
L 640.01984 206.937758 
L 640.249036 192.079779 
L 640.363635 189.426464 
L 640.592831 201.338016 
L 640.707429 197.824687 
L 640.822027 198.12797 
L 641.051224 185.354614 
L 641.165822 186.441097 
L 641.395018 181.199023 
L 641.738813 185.68083 
L 641.853411 194.16695 
L 641.968009 185.887729 
L 642.082607 186.765892 
L 642.197205 195.539664 
L 642.426402 175.012627 
L 642.770196 159.51007 
L 643.113991 164.730097 
L 643.228589 164.411703 
L 643.457785 158.635885 
L 643.572384 159.917018 
L 643.686982 158.939742 
L 643.916178 162.051781 
L 644.145375 158.583903 
L 644.489169 145.309235 
L 644.718365 150.661616 
L 644.832964 150.584974 
L 644.947562 151.415669 
L 645.06216 140.857906 
L 645.176758 140.881013 
L 645.291356 138.372348 
L 645.405955 132.400616 
L 645.635151 134.524139 
L 645.749749 136.804699 
L 645.864347 136.84437 
L 646.208142 141.090054 
L 646.32274 146.287265 
L 646.437338 146.371938 
L 646.551936 147.319733 
L 646.666535 145.625051 
L 646.781133 139.684497 
L 646.895731 145.679821 
L 647.010329 142.451262 
L 647.124927 145.591627 
L 647.239525 160.163811 
L 647.354124 159.096867 
L 647.697918 166.740303 
L 647.927115 168.009441 
L 648.041713 167.489006 
L 648.156311 166.122005 
L 648.270909 166.725517 
L 648.500105 175.455446 
L 648.614704 171.402774 
L 648.729302 173.673036 
L 648.8439 179.942381 
L 648.958498 179.513648 
L 649.187695 173.296299 
L 649.302293 166.345216 
L 649.416891 166.740943 
L 649.646087 165.078522 
L 649.760685 168.472771 
L 649.875284 167.606834 
L 650.219078 183.026603 
L 650.333676 175.5782 
L 650.448275 183.252678 
L 650.792069 169.807759 
L 650.906667 171.444877 
L 651.135864 182.897686 
L 651.250462 183.492844 
L 651.36506 196.120515 
L 651.479658 195.057395 
L 651.594256 212.636571 
L 651.708855 205.884899 
L 651.938051 224.951568 
L 652.052649 210.134803 
L 652.167247 222.250977 
L 652.281845 217.22756 
L 652.511042 221.105019 
L 652.740238 209.519986 
L 652.969435 216.805193 
L 653.084033 212.812024 
L 653.198631 214.653961 
L 653.313229 213.095729 
L 653.427827 217.322928 
L 653.542425 216.682524 
L 653.771622 224.733889 
L 653.88622 232.181847 
L 654.115416 229.823894 
L 654.230015 230.97222 
L 654.344613 233.750287 
L 654.459211 228.385 
L 654.573809 232.100748 
L 654.688407 230.311592 
L 654.803005 232.469429 
L 655.032202 254.519495 
L 655.1468 256.354548 
L 655.261398 255.123283 
L 655.375996 248.148815 
L 655.605193 257.722596 
L 655.719791 247.822288 
L 655.948987 257.226634 
L 656.063585 256.885561 
L 656.178184 243.164995 
L 656.292782 243.729018 
L 656.40738 239.26226 
L 656.521978 250.560451 
L 656.636576 246.546663 
L 656.865773 221.504573 
L 657.324165 230.392941 
L 657.553362 229.184046 
L 657.66796 240.804926 
L 657.897156 216.85944 
L 658.011755 206.240986 
L 658.126353 206.500998 
L 658.240951 209.639239 
L 658.355549 207.428003 
L 658.470147 207.473178 
L 658.584745 211.828997 
L 658.813942 225.440264 
L 658.92854 228.470139 
L 659.157736 246.547731 
L 659.272335 247.689399 
L 659.386933 251.891826 
L 659.730727 215.516005 
L 659.845325 217.708247 
L 659.959924 212.106224 
L 660.18912 213.576114 
L 660.303718 212.578615 
L 660.532915 217.656893 
L 660.762111 230.734962 
L 660.991307 222.858535 
L 661.105905 227.786471 
L 661.220504 218.887113 
L 661.335102 218.732657 
L 661.564298 222.174739 
L 661.793495 233.076262 
L 661.908093 219.789106 
L 662.022691 226.506427 
L 662.137289 226.188926 
L 662.366485 230.03015 
L 662.595682 215.057831 
L 662.71028 226.642857 
L 662.824878 226.680894 
L 662.939476 232.851293 
L 663.054075 227.394867 
L 663.168673 215.656465 
L 663.283271 218.265065 
L 663.397869 228.259894 
L 663.512467 226.762711 
L 663.627065 219.380909 
L 663.741664 220.531699 
L 663.856262 227.101309 
L 663.97086 223.595964 
L 664.314655 207.26836 
L 664.543851 216.249573 
L 664.658449 215.882603 
L 664.773047 221.639016 
L 664.887645 221.764781 
L 665.002244 224.913692 
L 665.346038 212.798633 
L 665.460636 215.892242 
L 665.689833 212.801688 
L 665.804431 216.783821 
L 665.919029 224.866314 
L 666.148225 222.163497 
L 666.262824 211.703247 
L 666.49202 218.571563 
L 666.606618 218.274616 
L 666.721216 222.164309 
L 666.950413 213.218019 
L 667.065011 212.44061 
L 667.179609 212.916185 
L 667.294207 220.281779 
L 667.408805 219.51249 
L 667.523404 219.963302 
L 667.638002 219.17067 
L 667.867198 213.752353 
L 667.981796 217.617712 
L 668.210993 209.560109 
L 668.325591 209.848531 
L 668.440189 211.587989 
L 668.669385 219.482431 
L 668.898582 228.394615 
L 669.01318 233.10673 
L 669.127778 225.153536 
L 669.356975 241.709413 
L 669.586171 230.998797 
L 669.700769 231.744327 
L 669.815367 237.739873 
L 669.929965 235.913995 
L 670.044564 236.517409 
L 670.27376 229.069674 
L 670.502956 233.985736 
L 670.732153 230.988988 
L 671.075947 216.72042 
L 671.190545 214.444579 
L 671.419742 198.980622 
L 671.878135 208.933905 
L 672.221929 231.865607 
L 672.451125 223.532488 
L 672.565724 224.7578 
L 672.680322 227.090268 
L 672.79492 226.962997 
L 673.024116 228.647103 
L 673.138715 225.327828 
L 673.253313 229.119664 
L 673.367911 226.613072 
L 673.482509 226.704541 
L 673.826304 235.750384 
L 674.0555 227.014455 
L 674.170098 229.149417 
L 674.284696 226.463538 
L 674.399295 229.792246 
L 674.513893 240.345127 
L 674.743089 228.729235 
L 674.857687 232.687514 
L 674.972285 220.852394 
L 675.086884 223.206462 
L 675.201482 221.112316 
L 675.31608 222.527175 
L 675.430678 219.628242 
L 675.659875 224.624449 
L 675.774473 229.540089 
L 675.889071 229.388359 
L 676.003669 226.958376 
L 676.118267 229.391991 
L 676.232865 229.110817 
L 676.57666 220.2432 
L 676.805856 236.026225 
L 676.805856 236.026225 
" clip-path="url(#p1f6cfef605)" style="fill: none; stroke: #1f77b4; stroke-width: 1.5; stroke-linecap: square"/>
   </g>
   <g id="patch_3">
    <path d="M 75.28 667.65 
L 75.28 38.17 
" style="fill: none; stroke: #000000; stroke-width: 0.8; stroke-linejoin: miter; stroke-linecap: square"/>
   </g>
   <g id="patch_4">
    <path d="M 705.57 667.65 
L 705.57 38.17 
" style="fill: none; stroke: #000000; stroke-width: 0.8; stroke-linejoin: miter; stroke-linecap: square"/>
   </g>
   <g id="patch_5">
    <path d="M 75.28 667.65 
L 705.57 667.65 
" style="fill: none; stroke: #000000; stroke-width: 0.8; stroke-linejoin: miter; stroke-linecap: square"/>
   </g>
   <g id="patch_6">
    <path d="M 75.28 38.17 
L 705.57 38.17 
" style="fill: none; stroke: #000000; stroke-width: 0.8; stroke-linejoin: miter; stroke-linecap: square"/>
   </g>
   <g id="text_6">
    <!-- ~ -->
    <g transform="translate(17.980909 645.943793) scale(0.32 -0.32)">
     <defs>
      <path id="DejaVuSans-7e" d="M 4684 2553 
L 4684 1997 
Q 4356 1750 4076 1644 
Q 3797 1538 3494 1538 
Q 3150 1538 2694 1722 
Q 2659 1734 2644 1741 
Q 2622 1750 2575 1766 
Q 2091 1959 1797 1959 
Q 1522 1959 1253 1839 
Q 984 1719 678 1459 
L 678 2016 
Q 1006 2263 1286 2370 
Q 1566 2478 1869 2478 
Q 2213 2478 2672 2291 
Q 2703 2278 2719 2272 
Q 2744 2263 2788 2247 
Q 3272 2053 3566 2053 
Q 3834 2053 4098 2172 
Q 4363 2291 4684 2553 
z
" transform="scale(0.015625)"/>
     </defs>
     <use xlink:href="#DejaVuSans-7e"/>
    </g>
   </g>
   <g id="text_7">
    <!-- 0 -->
    <g transform="translate(17.980909 700.20931) scale(0.32 -0.32)">
     <use xlink:href="#DejaVuSans-30"/>
    </g>
   </g>
   <g id="text_8">
    <!-- Window size: 1 -->
    <g transform="translate(270.585 31.515) scale(0.32 -0.32)">
     <defs>
      <path id="DejaVuSans-57" d="M 213 4666 
L 850 4666 
L 1831 722 
L 2809 4666 
L 3519 4666 
L 4500 722 
L 5478 4666 
L 6119 4666 
L 4947 0 
L 4153 0 
L 3169 4050 
L 2175 0 
L 1381 0 
L 213 4666 
z
" transform="scale(0.015625)"/>
      <path id="DejaVuSans-69" d="M 603 3500 
L 1178 3500 
L 1178 0 
L 603 0 
L 603 3500 
z
M 603 4863 
L 1178 4863 
L 1178 4134 
L 603 4134 
L 603 4863 
z
" transform="scale(0.015625)"/>
      <path id="DejaVuSans-6e" d="M 3513 2113 
L 3513 0 
L 2938 0 
L 2938 2094 
Q 2938 2591 2744 2837 
Q 2550 3084 2163 3084 
Q 1697 3084 1428 2787 
Q 1159 2491 1159 1978 
L 1159 0 
L 581 0 
L 581 3500 
L 1159 3500 
L 1159 2956 
Q 1366 3272 1645 3428 
Q 1925 3584 2291 3584 
Q 2894 3584 3203 3211 
Q 3513 2838 3513 2113 
z
" transform="scale(0.015625)"/>
      <path id="DejaVuSans-64" d="M 2906 2969 
L 2906 4863 
L 3481 4863 
L 3481 0 
L 2906 0 
L 2906 525 
Q 2725 213 2448 61 
Q 2172 -91 1784 -91 
Q 1150 -91 751 415 
Q 353 922 353 1747 
Q 353 2572 751 3078 
Q 1150 3584 1784 3584 
Q 2172 3584 2448 3432 
Q 2725 3281 2906 2969 
z
M 947 1747 
Q 947 1113 1208 752 
Q 1469 391 1925 391 
Q 2381 391 2643 752 
Q 2906 1113 2906 1747 
Q 2906 2381 2643 2742 
Q 2381 3103 1925 3103 
Q 1469 3103 1208 2742 
Q 947 2381 947 1747 
z
" transform="scale(0.015625)"/>
      <path id="DejaVuSans-6f" d="M 1959 3097 
Q 1497 3097 1228 2736 
Q 959 2375 959 1747 
Q 959 1119 1226 758 
Q 1494 397 1959 397 
Q 2419 397 2687 759 
Q 2956 1122 2956 1747 
Q 2956 2369 2687 2733 
Q 2419 3097 1959 3097 
z
M 1959 3584 
Q 2709 3584 3137 3096 
Q 3566 2609 3566 1747 
Q 3566 888 3137 398 
Q 2709 -91 1959 -91 
Q 1206 -91 779 398 
Q 353 888 353 1747 
Q 353 2609 779 3096 
Q 1206 3584 1959 3584 
z
" transform="scale(0.015625)"/>
      <path id="DejaVuSans-77" d="M 269 3500 
L 844 3500 
L 1563 769 
L 2278 3500 
L 2956 3500 
L 3675 769 
L 4391 3500 
L 4966 3500 
L 4050 0 
L 3372 0 
L 2619 2869 
L 1863 0 
L 1184 0 
L 269 3500 
z
" transform="scale(0.015625)"/>
      <path id="DejaVuSans-20" transform="scale(0.015625)"/>
      <path id="DejaVuSans-73" d="M 2834 3397 
L 2834 2853 
Q 2591 2978 2328 3040 
Q 2066 3103 1784 3103 
Q 1356 3103 1142 2972 
Q 928 2841 928 2578 
Q 928 2378 1081 2264 
Q 1234 2150 1697 2047 
L 1894 2003 
Q 2506 1872 2764 1633 
Q 3022 1394 3022 966 
Q 3022 478 2636 193 
Q 2250 -91 1575 -91 
Q 1294 -91 989 -36 
Q 684 19 347 128 
L 347 722 
Q 666 556 975 473 
Q 1284 391 1588 391 
Q 1994 391 2212 530 
Q 2431 669 2431 922 
Q 2431 1156 2273 1281 
Q 2116 1406 1581 1522 
L 1381 1569 
Q 847 1681 609 1914 
Q 372 2147 372 2553 
Q 372 3047 722 3315 
Q 1072 3584 1716 3584 
Q 2034 3584 2315 3537 
Q 2597 3491 2834 3397 
z
" transform="scale(0.015625)"/>
      <path id="DejaVuSans-7a" d="M 353 3500 
L 3084 3500 
L 3084 2975 
L 922 459 
L 3084 459 
L 3084 0 
L 275 0 
L 275 525 
L 2438 3041 
L 353 3041 
L 353 3500 
z
" transform="scale(0.015625)"/>
      <path id="DejaVuSans-65" d="M 3597 1894 
L 3597 1613 
L 953 1613 
Q 991 1019 1311 708 
Q 1631 397 2203 397 
Q 2534 397 2845 478 
Q 3156 559 3463 722 
L 3463 178 
Q 3153 47 2828 -22 
Q 2503 -91 2169 -91 
Q 1331 -91 842 396 
Q 353 884 353 1716 
Q 353 2575 817 3079 
Q 1281 3584 2069 3584 
Q 2775 3584 3186 3129 
Q 3597 2675 3597 1894 
z
M 3022 2063 
Q 3016 2534 2758 2815 
Q 2500 3097 2075 3097 
Q 1594 3097 1305 2825 
Q 1016 2553 972 2059 
L 3022 2063 
z
" transform="scale(0.015625)"/>
      <path id="DejaVuSans-3a" d="M 750 794 
L 1409 794 
L 1409 0 
L 750 0 
L 750 794 
z
M 750 3309 
L 1409 3309 
L 1409 2516 
L 750 2516 
L 750 3309 
z
" transform="scale(0.015625)"/>
     </defs>
     <use xlink:href="#DejaVuSans-57"/>
     <use xlink:href="#DejaVuSans-69" x="96.626953"/>
     <use xlink:href="#DejaVuSans-6e" x="124.410156"/>
     <use xlink:href="#DejaVuSans-64" x="187.789062"/>
     <use xlink:href="#DejaVuSans-6f" x="251.265625"/>
     <use xlink:href="#DejaVuSans-77" x="312.447266"/>
     <use xlink:href="#DejaVuSans-20" x="394.234375"/>
     <use xlink:href="#DejaVuSans-73" x="426.021484"/>
     <use xlink:href="#DejaVuSans-69" x="478.121094"/>
     <use xlink:href="#DejaVuSans-7a" x="505.904297"/>
     <use xlink:href="#DejaVuSans-65" x="558.394531"/>
     <use xlink:href="#DejaVuSans-3a" x="619.917969"/>
     <use xlink:href="#DejaVuSans-20" x="653.609375"/>
     <use xlink:href="#DejaVuSans-31" x="685.396484"/>
    </g>
   </g>
  </g>
 </g>
 <defs>
  <clipPath id="p1f6cfef605">
   <rect x="75.28" y="38.17" width="630.29" height="629.48"/>
  </clipPath>
 </defs>
</svg>
